<svg width="26" height="54" viewBox="0 0 26 54" fill="none" xmlns="http://www.w3.org/2000/svg">
<rect x="9" width="1" height="1" fill="#B03840"/>
<rect x="13" width="1" height="1" fill="#B03840"/>
<rect x="16" y="1" width="1" height="1" fill="#B03840"/>
<rect x="18" y="2" width="1" height="1" fill="#B03840"/>
<rect x="13" y="1" width="1" height="1" fill="#B03840"/>
<rect x="16" y="2" width="1" height="1" fill="#B03840"/>
<rect x="18" y="3" width="1" height="1" fill="#B03840"/>
<rect x="19" y="5" width="1" height="1" fill="#B03840"/>
<rect x="12" y="1" width="1" height="1" fill="#B03840"/>
<rect x="11" y="1" width="1" height="1" fill="#B03840"/>
<rect x="10" y="1" width="1" height="1" fill="#B03840"/>
<rect x="9" y="2" width="1" height="1" fill="#B03840"/>
<rect x="5" y="3" width="1" height="1" fill="#B03840"/>
<rect x="4" y="5" width="1" height="1" fill="#B03840"/>
<rect x="3" y="11" width="1" height="1" fill="#B03840"/>
<rect x="1" y="13" width="1" height="1" fill="#B03840"/>
<rect x="5" y="13" width="1" height="1" fill="#B03840"/>
<rect x="7" y="11" width="1" height="1" fill="#B03840"/>
<rect x="8" y="11" width="1" height="1" fill="#B03840"/>
<rect x="10" y="12" width="1" height="1" fill="#B03840"/>
<rect x="12" y="13" width="1" height="1" fill="#B03840"/>
<rect x="6" y="23" width="1" height="1" fill="#B03840"/>
<rect x="6" y="24" width="1" height="1" fill="#B03840"/>
<rect x="7" y="26" width="1" height="1" fill="#B03840"/>
<rect x="7" y="28" width="1" height="1" fill="#B03840"/>
<rect x="16" y="27" width="1" height="1" fill="#B03840"/>
<rect x="16" y="30" width="1" height="1" fill="#B03840"/>
<rect x="13" y="31" width="1" height="1" fill="#B03840"/>
<rect x="10" y="32" width="1" height="1" fill="#B03840"/>
<rect x="1" y="35" width="1" height="1" fill="#B03840"/>
<rect x="3" y="36" width="1" height="1" fill="#B03840"/>
<rect x="1" y="37" width="1" height="1" fill="#B03840"/>
<rect x="1" y="38" width="1" height="1" fill="#B03840"/>
<rect x="7" y="30" width="1" height="1" fill="#B03840"/>
<rect x="15" y="24" width="1" height="1" fill="#B03840"/>
<rect x="14" y="23" width="1" height="1" fill="#B03840"/>
<rect x="15" y="22" width="1" height="1" fill="#B03840"/>
<rect x="16" y="22" width="1" height="1" fill="#B03840"/>
<rect x="6" y="25" width="1" height="1" fill="#B03840"/>
<rect x="7" y="27" width="1" height="1" fill="#B03840"/>
<rect x="16" y="26" width="1" height="1" fill="#B03840"/>
<rect x="16" y="29" width="1" height="1" fill="#B03840"/>
<rect x="7" y="29" width="1" height="1" fill="#B03840"/>
<rect x="15" y="23" width="1" height="1" fill="#B03840"/>
<rect x="14" y="22" width="1" height="1" fill="#B03840"/>
<rect x="15" y="21" width="1" height="1" fill="#B03840"/>
<rect x="16" y="21" width="1" height="1" fill="#B03840"/>
<rect x="7" y="31" width="1" height="1" fill="#B03840"/>
<rect x="10" y="33" width="1" height="1" fill="#B03840"/>
<rect x="14" y="33" width="1" height="1" fill="#B03840"/>
<rect x="14" y="35" width="1" height="1" fill="#B03840"/>
<rect x="13" y="35" width="1" height="1" fill="#B03840"/>
<rect x="14" y="37" width="1" height="1" fill="#B03840"/>
<rect x="13" y="37" width="1" height="1" fill="#B03840"/>
<rect x="7" y="34" width="1" height="1" fill="#B03840"/>
<rect x="7" y="36" width="1" height="1" fill="#B03840"/>
<rect x="7" y="38" width="1" height="1" fill="#B03840"/>
<rect x="6" y="43" width="1" height="1" fill="#B03840"/>
<rect x="14" y="34" width="1" height="1" fill="#B03840"/>
<rect x="14" y="36" width="1" height="1" fill="#B03840"/>
<rect x="13" y="36" width="1" height="1" fill="#B03840"/>
<rect x="14" y="38" width="1" height="1" fill="#B03840"/>
<rect x="14" y="39" width="1" height="1" fill="#B03840"/>
<rect x="7" y="35" width="1" height="1" fill="#B03840"/>
<rect x="7" y="37" width="1" height="1" fill="#B03840"/>
<rect x="6" y="42" width="1" height="1" fill="#B03840"/>
<rect x="7" y="39" width="1" height="1" fill="#B03840"/>
<rect x="6" y="44" width="1" height="1" fill="#B03840"/>
<rect x="5" y="41" width="1" height="1" fill="#B03840"/>
<rect x="13" y="42" width="1" height="1" fill="#B03840"/>
<rect x="16" y="44" width="1" height="1" fill="#B03840"/>
<rect x="15" y="44" width="1" height="1" fill="#B03840"/>
<rect x="16" y="45" width="1" height="1" fill="#B03840"/>
<rect x="15" y="45" width="1" height="1" fill="#B03840"/>
<rect x="16" y="46" width="1" height="1" fill="#B03840"/>
<rect x="16" y="47" width="1" height="1" fill="#B03840"/>
<rect x="15" y="46" width="1" height="1" fill="#B03840"/>
<rect x="6" y="45" width="1" height="1" fill="#B03840"/>
<rect x="15" y="25" width="1" height="1" fill="#B03840"/>
<rect x="5" y="23" width="1" height="1" fill="#B03840"/>
<rect x="5" y="24" width="1" height="1" fill="#B03840"/>
<rect x="6" y="26" width="1" height="1" fill="#B03840"/>
<rect x="6" y="28" width="1" height="1" fill="#B03840"/>
<rect x="15" y="27" width="1" height="1" fill="#B03840"/>
<rect x="6" y="30" width="1" height="1" fill="#B03840"/>
<rect x="5" y="25" width="1" height="1" fill="#B03840"/>
<rect x="6" y="27" width="1" height="1" fill="#B03840"/>
<rect x="15" y="26" width="1" height="1" fill="#B03840"/>
<rect x="6" y="29" width="1" height="1" fill="#B03840"/>
<rect x="6" y="31" width="1" height="1" fill="#B03840"/>
<rect x="4" y="21" width="1" height="1" fill="#B03840"/>
<rect x="5" y="22" width="1" height="1" fill="#B03840"/>
<rect x="12" y="16" width="1" height="1" fill="#B03840"/>
<rect x="15" y="16" width="1" height="1" fill="#B03840"/>
<rect x="13" y="17" width="1" height="1" fill="#B03840"/>
<rect x="10" y="18" width="1" height="1" fill="#B03840"/>
<rect x="17" y="18" width="1" height="1" fill="#B03840"/>
<rect x="19" y="19" width="1" height="1" fill="#B03840"/>
<rect x="2" y="22" width="1" height="1" fill="#B03840"/>
<rect x="1" y="24" width="1" height="1" fill="#B03840"/>
<rect y="26" width="1" height="1" fill="#B03840"/>
<rect x="25" y="26" width="1" height="1" fill="#B03840"/>
<rect x="24" y="24" width="1" height="1" fill="#B03840"/>
<rect x="23" y="24" width="1" height="1" fill="#B03840"/>
<rect x="11" y="12" width="1" height="1" fill="#B03840"/>
<rect x="13" y="13" width="1" height="1" fill="#B03840"/>
<rect x="7" y="23" width="1" height="1" fill="#B03840"/>
<rect x="7" y="24" width="1" height="1" fill="#B03840"/>
<rect x="8" y="26" width="1" height="1" fill="#B03840"/>
<rect x="8" y="28" width="1" height="1" fill="#B03840"/>
<rect x="17" y="27" width="1" height="1" fill="#B03840"/>
<rect x="17" y="30" width="1" height="1" fill="#B03840"/>
<rect x="14" y="31" width="1" height="1" fill="#B03840"/>
<rect x="2" y="35" width="1" height="1" fill="#B03840"/>
<rect x="3" y="34" width="1" height="1" fill="#B03840"/>
<rect x="3" y="37" width="1" height="1" fill="#B03840"/>
<rect x="5" y="33" width="1" height="1" fill="#B03840"/>
<rect x="4" y="36" width="1" height="1" fill="#B03840"/>
<rect x="2" y="37" width="1" height="1" fill="#B03840"/>
<rect x="2" y="38" width="1" height="1" fill="#B03840"/>
<rect x="8" y="30" width="1" height="1" fill="#B03840"/>
<rect x="16" y="24" width="1" height="1" fill="#B03840"/>
<rect x="7" y="25" width="1" height="1" fill="#B03840"/>
<rect x="8" y="27" width="1" height="1" fill="#B03840"/>
<rect x="17" y="26" width="1" height="1" fill="#B03840"/>
<rect x="17" y="29" width="1" height="1" fill="#B03840"/>
<rect x="8" y="29" width="1" height="1" fill="#B03840"/>
<rect x="16" y="23" width="1" height="1" fill="#B03840"/>
<rect x="8" y="31" width="1" height="1" fill="#B03840"/>
<rect x="11" y="33" width="1" height="1" fill="#B03840"/>
<rect x="15" y="33" width="1" height="1" fill="#B03840"/>
<rect x="15" y="35" width="1" height="1" fill="#B03840"/>
<rect x="15" y="37" width="1" height="1" fill="#B03840"/>
<rect x="8" y="34" width="1" height="1" fill="#B03840"/>
<rect x="8" y="36" width="1" height="1" fill="#B03840"/>
<rect x="8" y="38" width="1" height="1" fill="#B03840"/>
<rect x="15" y="34" width="1" height="1" fill="#B03840"/>
<rect x="15" y="36" width="1" height="1" fill="#B03840"/>
<rect x="15" y="38" width="1" height="1" fill="#B03840"/>
<rect x="15" y="39" width="1" height="1" fill="#B03840"/>
<rect x="8" y="35" width="1" height="1" fill="#B03840"/>
<rect x="8" y="37" width="1" height="1" fill="#B03840"/>
<rect x="8" y="39" width="1" height="1" fill="#B03840"/>
<rect x="6" y="41" width="1" height="1" fill="#B03840"/>
<rect x="14" y="42" width="1" height="1" fill="#B03840"/>
<rect x="17" y="44" width="1" height="1" fill="#B03840"/>
<rect x="17" y="45" width="1" height="1" fill="#B03840"/>
<rect x="17" y="46" width="1" height="1" fill="#B03840"/>
<rect x="17" y="47" width="1" height="1" fill="#B03840"/>
<rect x="7" y="45" width="1" height="1" fill="#B03840"/>
<rect x="7" y="46" width="1" height="1" fill="#B03840"/>
<rect x="6" y="49" width="1" height="1" fill="#B03840"/>
<rect x="5" y="50" width="1" height="1" fill="#B03840"/>
<rect x="8" y="50" width="1" height="1" fill="#B03840"/>
<rect x="9" y="49" width="1" height="1" fill="#B03840"/>
<rect x="15" y="49" width="1" height="1" fill="#B03840"/>
<rect x="16" y="49" width="1" height="1" fill="#B03840"/>
<rect x="17" y="50" width="1" height="1" fill="#B03840"/>
<rect x="18" y="51" width="1" height="1" fill="#B03840"/>
<rect x="17" y="52" width="1" height="1" fill="#B03840"/>
<rect x="16" y="51" width="1" height="1" fill="#B03840"/>
<rect x="5" y="51" width="1" height="1" fill="#B03840"/>
<rect x="8" y="51" width="1" height="1" fill="#B03840"/>
<rect x="9" y="50" width="1" height="1" fill="#B03840"/>
<rect x="15" y="50" width="1" height="1" fill="#B03840"/>
<rect x="15" y="51" width="1" height="1" fill="#B03840"/>
<rect x="8" y="40" width="1" height="1" fill="#B03840"/>
<rect x="16" y="25" width="1" height="1" fill="#B03840"/>
<rect x="16" y="28" width="1" height="1" fill="#B03840"/>
<rect x="5" y="21" width="1" height="1" fill="#B03840"/>
<rect x="6" y="22" width="1" height="1" fill="#B03840"/>
<rect x="14" y="13" width="1" height="1" fill="#B03840"/>
<rect x="8" y="23" width="1" height="1" fill="#B03840"/>
<rect x="8" y="24" width="1" height="1" fill="#B03840"/>
<rect x="9" y="26" width="1" height="1" fill="#B03840"/>
<rect x="9" y="28" width="1" height="1" fill="#B03840"/>
<rect x="18" y="27" width="1" height="1" fill="#B03840"/>
<rect x="18" y="29" width="1" height="1" fill="#B03840"/>
<rect x="9" y="30" width="1" height="1" fill="#B03840"/>
<rect x="17" y="24" width="1" height="1" fill="#B03840"/>
<rect x="8" y="25" width="1" height="1" fill="#B03840"/>
<rect x="9" y="27" width="1" height="1" fill="#B03840"/>
<rect x="18" y="26" width="1" height="1" fill="#B03840"/>
<rect x="18" y="28" width="1" height="1" fill="#B03840"/>
<rect x="9" y="29" width="1" height="1" fill="#B03840"/>
<rect x="17" y="23" width="1" height="1" fill="#B03840"/>
<rect x="9" y="31" width="1" height="1" fill="#B03840"/>
<rect x="12" y="33" width="1" height="1" fill="#B03840"/>
<rect x="16" y="33" width="1" height="1" fill="#B03840"/>
<rect x="16" y="35" width="1" height="1" fill="#B03840"/>
<rect x="16" y="37" width="1" height="1" fill="#B03840"/>
<rect x="9" y="34" width="1" height="1" fill="#B03840"/>
<rect x="11" y="34" width="1" height="1" fill="#B03840"/>
<rect x="10" y="34" width="1" height="1" fill="#B03840"/>
<rect x="12" y="34" width="1" height="1" fill="#B03840"/>
<rect x="9" y="36" width="1" height="1" fill="#B03840"/>
<rect x="10" y="36" width="1" height="1" fill="#B03840"/>
<rect x="9" y="38" width="1" height="1" fill="#B03840"/>
<rect x="10" y="38" width="1" height="1" fill="#B03840"/>
<rect x="16" y="34" width="1" height="1" fill="#B03840"/>
<rect x="16" y="36" width="1" height="1" fill="#B03840"/>
<rect x="16" y="38" width="1" height="1" fill="#B03840"/>
<rect x="16" y="39" width="1" height="1" fill="#B03840"/>
<rect x="16" y="40" width="1" height="1" fill="#B03840"/>
<rect x="9" y="35" width="1" height="1" fill="#B03840"/>
<rect x="11" y="35" width="1" height="1" fill="#B03840"/>
<rect x="10" y="35" width="1" height="1" fill="#B03840"/>
<rect x="12" y="35" width="1" height="1" fill="#B03840"/>
<rect x="9" y="37" width="1" height="1" fill="#B03840"/>
<rect x="10" y="37" width="1" height="1" fill="#B03840"/>
<rect x="11" y="37" width="1" height="1" fill="#B03840"/>
<rect x="9" y="39" width="1" height="1" fill="#B03840"/>
<rect x="7" y="41" width="1" height="1" fill="#B03840"/>
<rect x="15" y="42" width="1" height="1" fill="#B03840"/>
<rect x="14" y="41" width="1" height="1" fill="#B03840"/>
<rect x="17" y="38" width="1" height="1" fill="#B03840"/>
<rect x="17" y="39" width="1" height="1" fill="#B03840"/>
<rect x="15" y="43" width="1" height="1" fill="#B03840"/>
<rect x="17" y="43" width="1" height="1" fill="#B03840"/>
<rect x="16" y="42" width="1" height="1" fill="#B03840"/>
<rect x="18" y="42" width="1" height="1" fill="#B03840"/>
<rect x="17" y="41" width="1" height="1" fill="#B03840"/>
<rect x="15" y="41" width="1" height="1" fill="#B03840"/>
<rect x="14" y="40" width="1" height="1" fill="#B03840"/>
<rect x="17" y="37" width="1" height="1" fill="#B03840"/>
<rect x="18" y="37" width="1" height="1" fill="#B03840"/>
<rect x="18" y="44" width="1" height="1" fill="#B03840"/>
<rect x="18" y="45" width="1" height="1" fill="#B03840"/>
<rect x="18" y="46" width="1" height="1" fill="#B03840"/>
<rect x="8" y="45" width="1" height="1" fill="#B03840"/>
<rect x="8" y="46" width="1" height="1" fill="#B03840"/>
<rect x="7" y="49" width="1" height="1" fill="#B03840"/>
<rect x="10" y="39" width="1" height="1" fill="#B03840"/>
<rect x="10" y="40" width="1" height="1" fill="#B03840"/>
<rect x="9" y="41" width="1" height="1" fill="#B03840"/>
<rect x="8" y="42" width="1" height="1" fill="#B03840"/>
<rect x="8" y="44" width="1" height="1" fill="#B03840"/>
<rect x="9" y="45" width="1" height="1" fill="#B03840"/>
<rect x="9" y="43" width="1" height="1" fill="#B03840"/>
<rect x="7" y="43" width="1" height="1" fill="#B03840"/>
<rect x="17" y="25" width="1" height="1" fill="#B03840"/>
<rect x="19" y="25" width="1" height="1" fill="#B03840"/>
<rect x="20" y="26" width="1" height="1" fill="#B03840"/>
<rect x="21" y="30" width="1" height="1" fill="#B03840"/>
<rect x="19" y="30" width="1" height="1" fill="#B03840"/>
<rect x="18" y="32" width="1" height="1" fill="#B03840"/>
<rect x="19" y="31" width="1" height="1" fill="#B03840"/>
<rect x="18" y="33" width="1" height="1" fill="#B03840"/>
<rect x="18" y="34" width="1" height="1" fill="#B03840"/>
<rect x="19" y="33" width="1" height="1" fill="#B03840"/>
<rect x="17" y="28" width="1" height="1" fill="#B03840"/>
<rect x="13" y="14" width="1" height="1" fill="#B03840"/>
<rect x="8" y="3" width="1" height="1" fill="#B03840"/>
<rect x="7" y="5" width="1" height="1" fill="#B03840"/>
<rect x="5" y="8" width="1" height="1" fill="#B03840"/>
<rect x="6" y="7" width="1" height="1" fill="#B03840"/>
<rect x="6" y="9" width="1" height="1" fill="#B03840"/>
<rect x="8" y="8" width="1" height="1" fill="#B03840"/>
<rect x="10" y="7" width="1" height="1" fill="#B03840"/>
<rect x="12" y="7" width="1" height="1" fill="#B03840"/>
<rect x="14" y="8" width="1" height="1" fill="#B03840"/>
<rect x="17" y="9" width="1" height="1" fill="#B03840"/>
<rect x="7" y="7" width="1" height="1" fill="#B03840"/>
<rect x="7" y="9" width="1" height="1" fill="#B03840"/>
<rect x="9" y="8" width="1" height="1" fill="#B03840"/>
<rect x="11" y="7" width="1" height="1" fill="#B03840"/>
<rect x="13" y="7" width="1" height="1" fill="#B03840"/>
<rect x="15" y="8" width="1" height="1" fill="#B03840"/>
<rect x="16" y="8" width="1" height="1" fill="#B03840"/>
<rect x="18" y="9" width="1" height="1" fill="#B03840"/>
<rect x="8" y="4" width="1" height="1" fill="#B03840"/>
<rect x="7" y="6" width="1" height="1" fill="#B03840"/>
<rect x="5" y="9" width="1" height="1" fill="#B03840"/>
<rect x="6" y="8" width="1" height="1" fill="#B03840"/>
<rect x="7" y="8" width="1" height="1" fill="#B03840"/>
<rect x="7" y="4" width="1" height="1" fill="#B03840"/>
<rect x="10" width="1" height="1" fill="black"/>
<rect x="7" y="1" width="1" height="1" fill="black"/>
<rect x="5" y="4" width="1" height="1" fill="black"/>
<rect x="6" y="2" width="1" height="1" fill="black"/>
<rect x="14" y="1" width="1" height="1" fill="black"/>
<rect x="11" width="1" height="1" fill="black"/>
<rect x="8" y="1" width="1" height="1" fill="black"/>
<rect x="15" y="1" width="1" height="1" fill="black"/>
<rect x="17" y="2" width="1" height="1" fill="black"/>
<rect x="19" y="3" width="1" height="1" fill="black"/>
<rect x="20" y="5" width="1" height="1" fill="black"/>
<rect x="19" y="8" width="1" height="1" fill="black"/>
<rect x="17" y="13" width="1" height="1" fill="black"/>
<rect x="4" y="6" width="1" height="1" fill="black"/>
<rect x="4" y="8" width="1" height="1" fill="black"/>
<rect x="4" y="10" width="1" height="1" fill="black"/>
<rect x="2" y="12" width="1" height="1" fill="black"/>
<rect x="3" y="12" width="1" height="1" fill="black"/>
<rect x="6" y="14" width="1" height="1" fill="black"/>
<rect x="8" y="12" width="1" height="1" fill="black"/>
<rect x="7" y="10" width="1" height="1" fill="black"/>
<rect x="9" y="11" width="1" height="1" fill="black"/>
<rect x="12" y="12" width="1" height="1" fill="black"/>
<rect x="18" y="13" width="1" height="1" fill="black"/>
<rect x="15" y="13" width="1" height="1" fill="black"/>
<rect x="14" y="12" width="1" height="1" fill="black"/>
<rect x="6" y="10" width="1" height="1" fill="black"/>
<rect x="5" y="10" width="1" height="1" fill="black"/>
<rect x="8" y="10" width="1" height="1" fill="black"/>
<rect x="10" y="11" width="1" height="1" fill="black"/>
<rect x="13" y="12" width="1" height="1" fill="black"/>
<rect x="19" y="13" width="1" height="1" fill="black"/>
<rect x="16" y="13" width="1" height="1" fill="black"/>
<rect x="19" y="4" width="1" height="1" fill="black"/>
<rect x="20" y="6" width="1" height="1" fill="black"/>
<rect x="19" y="9" width="1" height="1" fill="black"/>
<rect x="17" y="14" width="1" height="1" fill="black"/>
<rect x="20" y="11" width="1" height="1" fill="black"/>
<rect x="20" y="7" width="1" height="1" fill="black"/>
<rect x="19" y="10" width="1" height="1" fill="black"/>
<rect x="17" y="15" width="1" height="1" fill="black"/>
<rect x="20" y="12" width="1" height="1" fill="black"/>
<rect x="4" y="7" width="1" height="1" fill="black"/>
<rect x="4" y="9" width="1" height="1" fill="black"/>
<rect x="4" y="11" width="1" height="1" fill="black"/>
<rect x="2" y="13" width="1" height="1" fill="black"/>
<rect x="3" y="13" width="1" height="1" fill="black"/>
<rect x="3" y="14" width="1" height="1" fill="black"/>
<rect x="5" y="15" width="1" height="1" fill="black"/>
<rect x="8" y="17" width="1" height="1" fill="black"/>
<rect x="14" y="17" width="1" height="1" fill="black"/>
<rect x="12" y="18" width="1" height="1" fill="black"/>
<rect x="8" y="19" width="1" height="1" fill="black"/>
<rect x="16" y="18" width="1" height="1" fill="black"/>
<rect x="17" y="21" width="1" height="1" fill="black"/>
<rect x="22" y="22" width="1" height="1" fill="black"/>
<rect x="4" y="22" width="1" height="1" fill="black"/>
<rect x="5" y="26" width="1" height="1" fill="black"/>
<rect y="32" width="1" height="1" fill="black"/>
<rect x="5" y="30" width="1" height="1" fill="black"/>
<rect x="4" y="31" width="1" height="1" fill="black"/>
<rect x="1" y="29" width="1" height="1" fill="black"/>
<rect x="3" y="21" width="1" height="1" fill="black"/>
<rect x="2" y="23" width="1" height="1" fill="black"/>
<rect x="6" y="21" width="1" height="1" fill="black"/>
<rect x="9" y="21" width="1" height="1" fill="black"/>
<rect x="13" y="20" width="1" height="1" fill="black"/>
<rect x="15" y="20" width="1" height="1" fill="black"/>
<rect x="16" y="20" width="1" height="1" fill="black"/>
<rect x="18" y="19" width="1" height="1" fill="black"/>
<rect x="20" y="20" width="1" height="1" fill="black"/>
<rect x="21" y="21" width="1" height="1" fill="black"/>
<rect x="21" y="24" width="1" height="1" fill="black"/>
<rect x="20" y="25" width="1" height="1" fill="black"/>
<rect x="24" y="25" width="1" height="1" fill="black"/>
<rect x="18" y="25" width="1" height="1" fill="black"/>
<rect x="18" y="24" width="1" height="1" fill="black"/>
<rect x="18" y="23" width="1" height="1" fill="black"/>
<rect x="14" y="21" width="1" height="1" fill="black"/>
<rect x="7" y="22" width="1" height="1" fill="black"/>
<rect x="9" y="23" width="1" height="1" fill="black"/>
<rect x="9" y="24" width="1" height="1" fill="black"/>
<rect x="9" y="25" width="1" height="1" fill="black"/>
<rect x="12" y="21" width="1" height="1" fill="black"/>
<rect x="9" y="22" width="1" height="1" fill="black"/>
<rect x="11" y="23" width="1" height="1" fill="black"/>
<rect x="12" y="22" width="1" height="1" fill="black"/>
<rect x="11" y="24" width="1" height="1" fill="black"/>
<rect x="11" y="26" width="1" height="1" fill="black"/>
<rect x="11" y="28" width="1" height="1" fill="black"/>
<rect x="11" y="25" width="1" height="1" fill="black"/>
<rect x="11" y="27" width="1" height="1" fill="black"/>
<rect x="11" y="29" width="1" height="1" fill="black"/>
<rect x="11" y="30" width="1" height="1" fill="black"/>
<rect x="6" y="36" width="1" height="1" fill="black"/>
<rect x="18" y="35" width="1" height="1" fill="black"/>
<rect x="11" y="31" width="1" height="1" fill="black"/>
<rect x="6" y="37" width="1" height="1" fill="black"/>
<rect x="18" y="36" width="1" height="1" fill="black"/>
<rect x="8" y="33" width="1" height="1" fill="black"/>
<rect x="15" y="32" width="1" height="1" fill="black"/>
<rect x="8" y="22" width="1" height="1" fill="black"/>
<rect x="10" y="23" width="1" height="1" fill="black"/>
<rect x="11" y="22" width="1" height="1" fill="black"/>
<rect x="10" y="24" width="1" height="1" fill="black"/>
<rect x="10" y="26" width="1" height="1" fill="black"/>
<rect x="10" y="28" width="1" height="1" fill="black"/>
<rect x="11" y="38" width="1" height="1" fill="black"/>
<rect x="13" y="38" width="1" height="1" fill="black"/>
<rect x="18" y="38" width="1" height="1" fill="black"/>
<rect x="10" y="42" width="1" height="1" fill="black"/>
<rect x="14" y="43" width="1" height="1" fill="black"/>
<rect x="19" y="43" width="1" height="1" fill="black"/>
<rect x="5" y="42" width="1" height="1" fill="black"/>
<rect x="6" y="38" width="1" height="1" fill="black"/>
<rect x="10" y="25" width="1" height="1" fill="black"/>
<rect x="10" y="27" width="1" height="1" fill="black"/>
<rect x="10" y="29" width="1" height="1" fill="black"/>
<rect x="11" y="39" width="1" height="1" fill="black"/>
<rect x="13" y="39" width="1" height="1" fill="black"/>
<rect x="18" y="39" width="1" height="1" fill="black"/>
<rect x="10" y="43" width="1" height="1" fill="black"/>
<rect x="9" y="46" width="1" height="1" fill="black"/>
<rect x="6" y="46" width="1" height="1" fill="black"/>
<rect x="4" y="50" width="1" height="1" fill="black"/>
<rect x="10" y="49" width="1" height="1" fill="black"/>
<rect x="14" y="49" width="1" height="1" fill="black"/>
<rect x="14" y="44" width="1" height="1" fill="black"/>
<rect x="19" y="44" width="1" height="1" fill="black"/>
<rect x="5" y="43" width="1" height="1" fill="black"/>
<rect x="6" y="39" width="1" height="1" fill="black"/>
<rect x="10" y="30" width="1" height="1" fill="black"/>
<rect x="11" y="40" width="1" height="1" fill="black"/>
<rect x="13" y="40" width="1" height="1" fill="black"/>
<rect x="18" y="40" width="1" height="1" fill="black"/>
<rect x="10" y="44" width="1" height="1" fill="black"/>
<rect x="9" y="47" width="1" height="1" fill="black"/>
<rect x="8" y="53" width="1" height="1" fill="black"/>
<rect x="20" y="53" width="1" height="1" fill="black"/>
<rect x="17" y="51" width="1" height="1" fill="black"/>
<rect x="16" y="50" width="1" height="1" fill="black"/>
<rect x="20" y="50" width="1" height="1" fill="black"/>
<rect x="21" y="51" width="1" height="1" fill="black"/>
<rect x="21" y="52" width="1" height="1" fill="black"/>
<rect x="7" y="50" width="1" height="1" fill="black"/>
<rect x="6" y="47" width="1" height="1" fill="black"/>
<rect x="5" y="53" width="1" height="1" fill="black"/>
<rect x="17" y="53" width="1" height="1" fill="black"/>
<rect x="15" y="52" width="1" height="1" fill="black"/>
<rect x="15" y="48" width="1" height="1" fill="black"/>
<rect x="15" y="47" width="1" height="1" fill="black"/>
<rect x="17" y="48" width="1" height="1" fill="black"/>
<rect x="8" y="47" width="1" height="1" fill="black"/>
<rect x="7" y="53" width="1" height="1" fill="black"/>
<rect x="19" y="53" width="1" height="1" fill="black"/>
<rect x="19" y="50" width="1" height="1" fill="black"/>
<rect x="19" y="49" width="1" height="1" fill="black"/>
<rect x="6" y="50" width="1" height="1" fill="black"/>
<rect x="7" y="47" width="1" height="1" fill="black"/>
<rect x="6" y="53" width="1" height="1" fill="black"/>
<rect x="18" y="53" width="1" height="1" fill="black"/>
<rect x="18" y="50" width="1" height="1" fill="black"/>
<rect x="16" y="52" width="1" height="1" fill="black"/>
<rect x="16" y="48" width="1" height="1" fill="black"/>
<rect x="18" y="48" width="1" height="1" fill="black"/>
<rect x="18" y="47" width="1" height="1" fill="black"/>
<rect x="4" y="51" width="1" height="1" fill="black"/>
<rect x="10" y="50" width="1" height="1" fill="black"/>
<rect x="14" y="50" width="1" height="1" fill="black"/>
<rect x="9" y="51" width="1" height="1" fill="black"/>
<rect x="5" y="48" width="1" height="1" fill="black"/>
<rect x="14" y="45" width="1" height="1" fill="black"/>
<rect x="19" y="45" width="1" height="1" fill="black"/>
<rect x="5" y="44" width="1" height="1" fill="black"/>
<rect x="6" y="40" width="1" height="1" fill="black"/>
<rect x="5" y="36" width="1" height="1" fill="black"/>
<rect x="17" y="35" width="1" height="1" fill="black"/>
<rect x="10" y="31" width="1" height="1" fill="black"/>
<rect x="11" y="41" width="1" height="1" fill="black"/>
<rect x="13" y="41" width="1" height="1" fill="black"/>
<rect x="18" y="41" width="1" height="1" fill="black"/>
<rect x="10" y="45" width="1" height="1" fill="black"/>
<rect x="9" y="48" width="1" height="1" fill="black"/>
<rect x="8" y="49" width="1" height="1" fill="black"/>
<rect x="6" y="48" width="1" height="1" fill="black"/>
<rect x="4" y="52" width="1" height="1" fill="black"/>
<rect x="10" y="51" width="1" height="1" fill="black"/>
<rect x="14" y="51" width="1" height="1" fill="black"/>
<rect x="9" y="52" width="1" height="1" fill="black"/>
<rect x="5" y="49" width="1" height="1" fill="black"/>
<rect x="14" y="46" width="1" height="1" fill="black"/>
<rect x="19" y="46" width="1" height="1" fill="black"/>
<rect x="5" y="45" width="1" height="1" fill="black"/>
<rect x="5" y="37" width="1" height="1" fill="black"/>
<rect x="17" y="36" width="1" height="1" fill="black"/>
<rect x="7" y="33" width="1" height="1" fill="black"/>
<rect x="14" y="32" width="1" height="1" fill="black"/>
<rect x="13" y="21" width="1" height="1" fill="black"/>
<rect x="10" y="22" width="1" height="1" fill="black"/>
<rect x="12" y="23" width="1" height="1" fill="black"/>
<rect x="13" y="23" width="1" height="1" fill="black"/>
<rect x="13" y="22" width="1" height="1" fill="black"/>
<rect x="12" y="24" width="1" height="1" fill="black"/>
<rect x="12" y="26" width="1" height="1" fill="black"/>
<rect x="12" y="28" width="1" height="1" fill="black"/>
<rect x="13" y="24" width="1" height="1" fill="black"/>
<rect x="13" y="26" width="1" height="1" fill="black"/>
<rect x="13" y="28" width="1" height="1" fill="black"/>
<rect x="14" y="24" width="1" height="1" fill="black"/>
<rect x="14" y="26" width="1" height="1" fill="black"/>
<rect x="14" y="28" width="1" height="1" fill="black"/>
<rect x="15" y="28" width="1" height="1" fill="black"/>
<rect x="19" y="26" width="1" height="1" fill="black"/>
<rect x="15" y="30" width="1" height="1" fill="black"/>
<rect x="19" y="28" width="1" height="1" fill="black"/>
<rect x="19" y="29" width="1" height="1" fill="black"/>
<rect x="12" y="25" width="1" height="1" fill="black"/>
<rect x="12" y="27" width="1" height="1" fill="black"/>
<rect x="12" y="29" width="1" height="1" fill="black"/>
<rect x="13" y="32" width="1" height="1" fill="black"/>
<rect x="17" y="32" width="1" height="1" fill="black"/>
<rect x="6" y="33" width="1" height="1" fill="black"/>
<rect x="12" y="30" width="1" height="1" fill="black"/>
<rect x="13" y="33" width="1" height="1" fill="black"/>
<rect x="12" y="36" width="1" height="1" fill="black"/>
<rect x="11" y="36" width="1" height="1" fill="black"/>
<rect x="17" y="33" width="1" height="1" fill="black"/>
<rect x="6" y="34" width="1" height="1" fill="black"/>
<rect x="12" y="31" width="1" height="1" fill="black"/>
<rect x="13" y="34" width="1" height="1" fill="black"/>
<rect x="12" y="37" width="1" height="1" fill="black"/>
<rect x="17" y="34" width="1" height="1" fill="black"/>
<rect x="6" y="35" width="1" height="1" fill="black"/>
<rect x="9" y="33" width="1" height="1" fill="black"/>
<rect x="16" y="32" width="1" height="1" fill="black"/>
<rect x="13" y="25" width="1" height="1" fill="black"/>
<rect x="13" y="27" width="1" height="1" fill="black"/>
<rect x="13" y="29" width="1" height="1" fill="black"/>
<rect x="13" y="30" width="1" height="1" fill="black"/>
<rect x="14" y="25" width="1" height="1" fill="black"/>
<rect x="14" y="27" width="1" height="1" fill="black"/>
<rect x="14" y="29" width="1" height="1" fill="black"/>
<rect x="15" y="29" width="1" height="1" fill="black"/>
<rect x="19" y="27" width="1" height="1" fill="black"/>
<rect x="20" y="27" width="1" height="1" fill="black"/>
<rect x="25" y="27" width="1" height="1" fill="black"/>
<rect x="23" y="29" width="1" height="1" fill="black"/>
<rect x="21" y="31" width="1" height="1" fill="black"/>
<rect x="24" y="28" width="1" height="1" fill="black"/>
<rect x="22" y="30" width="1" height="1" fill="black"/>
<rect x="20" y="32" width="1" height="1" fill="black"/>
<rect x="20" y="34" width="1" height="1" fill="black"/>
<rect x="19" y="35" width="1" height="1" fill="black"/>
<rect x="20" y="31" width="1" height="1" fill="black"/>
<rect x="20" y="33" width="1" height="1" fill="black"/>
<rect x="20" y="30" width="1" height="1" fill="black"/>
<rect x="19" y="32" width="1" height="1" fill="black"/>
<rect x="18" y="31" width="1" height="1" fill="black"/>
<rect x="15" y="31" width="1" height="1" fill="black"/>
<rect x="14" y="30" width="1" height="1" fill="black"/>
<rect x="12" y="19" width="1" height="1" fill="black"/>
<rect x="8" y="20" width="1" height="1" fill="black"/>
<rect x="16" y="19" width="1" height="1" fill="black"/>
<rect x="17" y="22" width="1" height="1" fill="black"/>
<rect x="22" y="23" width="1" height="1" fill="black"/>
<rect x="4" y="23" width="1" height="1" fill="black"/>
<rect x="5" y="27" width="1" height="1" fill="black"/>
<rect y="33" width="1" height="1" fill="black"/>
<rect x="5" y="31" width="1" height="1" fill="black"/>
<rect x="4" y="32" width="1" height="1" fill="black"/>
<rect x="1" y="30" width="1" height="1" fill="black"/>
<rect x="4" y="24" width="1" height="1" fill="black"/>
<rect x="5" y="28" width="1" height="1" fill="black"/>
<rect y="34" width="1" height="1" fill="black"/>
<rect x="1" y="34" width="1" height="1" fill="black"/>
<rect x="1" y="36" width="1" height="1" fill="black"/>
<rect x="3" y="35" width="1" height="1" fill="black"/>
<rect x="2" y="39" width="1" height="1" fill="black"/>
<rect x="2" y="34" width="1" height="1" fill="black"/>
<rect x="2" y="36" width="1" height="1" fill="black"/>
<rect x="4" y="35" width="1" height="1" fill="black"/>
<rect x="3" y="39" width="1" height="1" fill="black"/>
<rect x="4" y="38" width="1" height="1" fill="black"/>
<rect y="36" width="1" height="1" fill="black"/>
<rect x="5" y="32" width="1" height="1" fill="black"/>
<rect x="4" y="33" width="1" height="1" fill="black"/>
<rect y="27" width="1" height="1" fill="black"/>
<rect y="28" width="1" height="1" fill="black"/>
<rect x="1" y="28" width="1" height="1" fill="black"/>
<rect x="2" y="28" width="1" height="1" fill="black"/>
<rect x="3" y="29" width="1" height="1" fill="black"/>
<rect x="4" y="29" width="1" height="1" fill="black"/>
<rect x="5" y="29" width="1" height="1" fill="black"/>
<rect y="35" width="1" height="1" fill="black"/>
<rect y="37" width="1" height="1" fill="black"/>
<rect x="1" y="25" width="1" height="1" fill="black"/>
<rect x="1" y="31" width="1" height="1" fill="black"/>
<rect x="4" y="20" width="1" height="1" fill="black"/>
<rect x="4" y="19" width="1" height="1" fill="black"/>
<rect x="6" y="17" width="1" height="1" fill="black"/>
<rect x="5" y="18" width="1" height="1" fill="black"/>
<rect x="9" y="18" width="1" height="1" fill="black"/>
<rect x="11" y="18" width="1" height="1" fill="black"/>
<rect x="11" y="16" width="1" height="1" fill="black"/>
<rect x="16" y="16" width="1" height="1" fill="black"/>
<rect x="7" y="16" width="1" height="1" fill="black"/>
<rect x="4" y="14" width="1" height="1" fill="black"/>
<rect x="6" y="15" width="1" height="1" fill="black"/>
<rect x="9" y="17" width="1" height="1" fill="black"/>
<rect x="15" y="17" width="1" height="1" fill="black"/>
<rect x="13" y="18" width="1" height="1" fill="black"/>
<rect x="5" y="20" width="1" height="1" fill="black"/>
<rect x="4" y="15" width="1" height="1" fill="black"/>
<rect x="8" y="13" width="1" height="1" fill="black"/>
<rect x="6" y="11" width="1" height="1" fill="black"/>
<rect x="12" width="1" height="1" fill="black"/>
<rect x="10" y="2" width="1" height="1" fill="#F8F8F8"/>
<rect x="10" y="3" width="1" height="1" fill="#F8F8F8"/>
<rect x="9" y="3" width="1" height="1" fill="#F8F8F8"/>
<rect x="8" y="5" width="1" height="1" fill="#F8F8F8"/>
<rect x="10" y="4" width="1" height="1" fill="#F8F8F8"/>
<rect x="9" y="4" width="1" height="1" fill="#F8F8F8"/>
<rect x="8" y="6" width="1" height="1" fill="#F8F8F8"/>
<rect x="10" y="5" width="1" height="1" fill="#F8F8F8"/>
<rect x="10" y="6" width="1" height="1" fill="#F8F8F8"/>
<rect x="9" y="5" width="1" height="1" fill="#F8F8F8"/>
<rect x="9" y="6" width="1" height="1" fill="#F8F8F8"/>
<rect x="9" y="7" width="1" height="1" fill="#F8F8F8"/>
<rect x="8" y="7" width="1" height="1" fill="#F8F8F8"/>
<rect x="11" y="2" width="1" height="1" fill="#F8F8F8"/>
<rect x="11" y="3" width="1" height="1" fill="#F8F8F8"/>
<rect x="11" y="4" width="1" height="1" fill="#F8F8F8"/>
<rect x="11" y="5" width="1" height="1" fill="#F8F8F8"/>
<rect x="11" y="6" width="1" height="1" fill="#F8F8F8"/>
<rect x="11" y="8" width="1" height="1" fill="#F8F8F8"/>
<rect x="10" y="8" width="1" height="1" fill="#F8F8F8"/>
<rect x="11" y="9" width="1" height="1" fill="#F8F8F8"/>
<rect x="10" y="9" width="1" height="1" fill="#F8F8F8"/>
<rect x="9" y="9" width="1" height="1" fill="#F8F8F8"/>
<rect x="5" y="11" width="1" height="1" fill="#F8F8F8"/>
<rect x="4" y="12" width="1" height="1" fill="#F8F8F8"/>
<rect x="6" y="12" width="1" height="1" fill="#F8F8F8"/>
<rect x="7" y="12" width="1" height="1" fill="#F8F8F8"/>
<rect x="9" y="12" width="1" height="1" fill="#F8F8F8"/>
<rect x="7" y="14" width="1" height="1" fill="#F8F8F8"/>
<rect x="8" y="14" width="1" height="1" fill="#F8F8F8"/>
<rect x="4" y="13" width="1" height="1" fill="#F8F8F8"/>
<rect x="6" y="13" width="1" height="1" fill="#F8F8F8"/>
<rect x="7" y="13" width="1" height="1" fill="#F8F8F8"/>
<rect x="9" y="13" width="1" height="1" fill="#F8F8F8"/>
<rect x="7" y="15" width="1" height="1" fill="#F8F8F8"/>
<rect x="8" y="16" width="1" height="1" fill="#F8F8F8"/>
<rect x="7" y="18" width="1" height="1" fill="#F8F8F8"/>
<rect x="7" y="17" width="1" height="1" fill="#F8F8F8"/>
<rect x="5" y="19" width="1" height="1" fill="#F8F8F8"/>
<rect x="8" y="15" width="1" height="1" fill="#F8F8F8"/>
<rect x="9" y="16" width="1" height="1" fill="#F8F8F8"/>
<rect x="8" y="18" width="1" height="1" fill="#F8F8F8"/>
<rect x="9" y="19" width="1" height="1" fill="#F8F8F8"/>
<rect x="9" y="20" width="1" height="1" fill="#F8F8F8"/>
<rect x="6" y="19" width="1" height="1" fill="#F8F8F8"/>
<rect x="7" y="19" width="1" height="1" fill="#F8F8F8"/>
<rect x="7" y="20" width="1" height="1" fill="#F8F8F8"/>
<rect x="6" y="20" width="1" height="1" fill="#F8F8F8"/>
<rect x="7" y="21" width="1" height="1" fill="#F8F8F8"/>
<rect x="8" y="21" width="1" height="1" fill="#F8F8F8"/>
<rect x="3" y="22" width="1" height="1" fill="#F8F8F8"/>
<rect x="3" y="23" width="1" height="1" fill="#F8F8F8"/>
<rect x="3" y="24" width="1" height="1" fill="#F8F8F8"/>
<rect x="2" y="24" width="1" height="1" fill="#F8F8F8"/>
<rect x="2" y="25" width="1" height="1" fill="#F8F8F8"/>
<rect x="2" y="26" width="1" height="1" fill="#F8F8F8"/>
<rect x="1" y="26" width="1" height="1" fill="#F8F8F8"/>
<rect x="2" y="27" width="1" height="1" fill="#F8F8F8"/>
<rect x="1" y="27" width="1" height="1" fill="#F8F8F8"/>
<rect x="3" y="25" width="1" height="1" fill="#F8F8F8"/>
<rect x="3" y="26" width="1" height="1" fill="#F8F8F8"/>
<rect x="3" y="27" width="1" height="1" fill="#F8F8F8"/>
<rect x="3" y="28" width="1" height="1" fill="#F8F8F8"/>
<rect x="4" y="25" width="1" height="1" fill="#F8F8F8"/>
<rect x="4" y="26" width="1" height="1" fill="#F8F8F8"/>
<rect x="4" y="27" width="1" height="1" fill="#F8F8F8"/>
<rect x="4" y="28" width="1" height="1" fill="#F8F8F8"/>
<rect x="19" y="23" width="1" height="1" fill="#F8F8F8"/>
<rect x="20" y="22" width="1" height="1" fill="#F8F8F8"/>
<rect x="21" y="23" width="1" height="1" fill="#F8F8F8"/>
<rect x="22" y="24" width="1" height="1" fill="#F8F8F8"/>
<rect x="24" y="26" width="1" height="1" fill="#F8F8F8"/>
<rect x="21" y="25" width="1" height="1" fill="#F8F8F8"/>
<rect x="22" y="25" width="1" height="1" fill="#F8F8F8"/>
<rect x="23" y="25" width="1" height="1" fill="#F8F8F8"/>
<rect x="24" y="27" width="1" height="1" fill="#F8F8F8"/>
<rect x="21" y="26" width="1" height="1" fill="#F8F8F8"/>
<rect x="21" y="27" width="1" height="1" fill="#F8F8F8"/>
<rect x="22" y="26" width="1" height="1" fill="#F8F8F8"/>
<rect x="22" y="27" width="1" height="1" fill="#F8F8F8"/>
<rect x="23" y="26" width="1" height="1" fill="#F8F8F8"/>
<rect x="23" y="27" width="1" height="1" fill="#F8F8F8"/>
<rect x="23" y="28" width="1" height="1" fill="#F8F8F8"/>
<rect x="22" y="28" width="1" height="1" fill="#F8F8F8"/>
<rect x="18" y="30" width="1" height="1" fill="#F8F8F8"/>
<rect x="17" y="31" width="1" height="1" fill="#F8F8F8"/>
<rect x="12" y="32" width="1" height="1" fill="#F8F8F8"/>
<rect x="8" y="48" width="1" height="1" fill="#F8F8F8"/>
<rect x="7" y="51" width="1" height="1" fill="#F8F8F8"/>
<rect x="20" y="51" width="1" height="1" fill="#F8F8F8"/>
<rect x="9" y="32" width="1" height="1" fill="#F8F8F8"/>
<rect x="7" y="32" width="1" height="1" fill="#F8F8F8"/>
<rect x="3" y="33" width="1" height="1" fill="#F8F8F8"/>
<rect x="5" y="35" width="1" height="1" fill="#F8F8F8"/>
<rect x="3" y="32" width="1" height="1" fill="#F8F8F8"/>
<rect x="5" y="34" width="1" height="1" fill="#F8F8F8"/>
<rect x="4" y="34" width="1" height="1" fill="#F8F8F8"/>
<rect x="3" y="38" width="1" height="1" fill="#F8F8F8"/>
<rect x="3" y="31" width="1" height="1" fill="#F8F8F8"/>
<rect x="16" y="31" width="1" height="1" fill="#F8F8F8"/>
<rect x="11" y="32" width="1" height="1" fill="#F8F8F8"/>
<rect x="7" y="48" width="1" height="1" fill="#F8F8F8"/>
<rect x="6" y="51" width="1" height="1" fill="#F8F8F8"/>
<rect x="19" y="51" width="1" height="1" fill="#F8F8F8"/>
<rect x="17" y="49" width="1" height="1" fill="#F8F8F8"/>
<rect x="8" y="32" width="1" height="1" fill="#F8F8F8"/>
<rect x="6" y="32" width="1" height="1" fill="#F8F8F8"/>
<rect x="2" y="33" width="1" height="1" fill="#F8F8F8"/>
<rect x="2" y="32" width="1" height="1" fill="#F8F8F8"/>
<rect x="20" y="24" width="1" height="1" fill="#F8F8F8"/>
<rect x="6" y="18" width="1" height="1" fill="#F8F8F8"/>
<rect x="11" y="14" width="1" height="1" fill="#F8F8F8"/>
<rect x="5" y="14" width="1" height="1" fill="#F8F8F8"/>
<rect x="11" y="10" width="1" height="1" fill="#F8F8F8"/>
<rect x="14" y="10" width="1" height="1" fill="#F8F8F8"/>
<rect x="15" y="11" width="1" height="1" fill="#F8F8F8"/>
<rect x="14" y="9" width="1" height="1" fill="#F8F8F8"/>
<rect x="12" y="2" width="1" height="1" fill="#F8F8F8"/>
<rect x="12" y="3" width="1" height="1" fill="#F8F8F8"/>
<rect x="12" y="4" width="1" height="1" fill="#F8F8F8"/>
<rect x="12" y="5" width="1" height="1" fill="#F8F8F8"/>
<rect x="12" y="6" width="1" height="1" fill="#F8F8F8"/>
<rect x="12" y="8" width="1" height="1" fill="#F8F8F8"/>
<rect x="12" y="9" width="1" height="1" fill="#F8F8F8"/>
<rect x="12" y="10" width="1" height="1" fill="#F8F8F8"/>
<rect x="15" y="10" width="1" height="1" fill="#F8F8F8"/>
<rect x="17" y="10" width="1" height="1" fill="#F8F8F8"/>
<rect x="18" y="11" width="1" height="1" fill="#F8F8F8"/>
<rect x="16" y="11" width="1" height="1" fill="#F8F8F8"/>
<rect x="15" y="9" width="1" height="1" fill="#F8F8F8"/>
<rect x="13" y="2" width="1" height="1" fill="#F8F8F8"/>
<rect x="13" y="3" width="1" height="1" fill="#F8F8F8"/>
<rect x="13" y="4" width="1" height="1" fill="#F8F8F8"/>
<rect x="13" y="5" width="1" height="1" fill="#F8F8F8"/>
<rect x="13" y="6" width="1" height="1" fill="#F8F8F8"/>
<rect x="13" y="8" width="1" height="1" fill="#F8F8F8"/>
<rect x="13" y="9" width="1" height="1" fill="#F8F8F8"/>
<rect x="13" y="10" width="1" height="1" fill="#F8F8F8"/>
<rect x="16" y="10" width="1" height="1" fill="#F8F8F8"/>
<rect x="18" y="10" width="1" height="1" fill="#F8F8F8"/>
<rect x="19" y="11" width="1" height="1" fill="#F8F8F8"/>
<rect x="17" y="11" width="1" height="1" fill="#F8F8F8"/>
<rect x="16" y="9" width="1" height="1" fill="#F8F8F8"/>
<rect x="14" y="2" width="1" height="1" fill="#F8F8F8"/>
<rect x="18" y="4" width="1" height="1" fill="#F8F8F8"/>
<rect x="17" y="3" width="1" height="1" fill="#F8F8F8"/>
<rect x="16" y="3" width="1" height="1" fill="#F8F8F8"/>
<rect x="14" y="3" width="1" height="1" fill="#F8F8F8"/>
<rect x="18" y="5" width="1" height="1" fill="#F8F8F8"/>
<rect x="17" y="4" width="1" height="1" fill="#F8F8F8"/>
<rect x="16" y="4" width="1" height="1" fill="#F8F8F8"/>
<rect x="14" y="4" width="1" height="1" fill="#F8F8F8"/>
<rect x="18" y="6" width="1" height="1" fill="#F8F8F8"/>
<rect x="19" y="6" width="1" height="1" fill="#F8F8F8"/>
<rect x="17" y="7" width="1" height="1" fill="#F8F8F8"/>
<rect x="17" y="8" width="1" height="1" fill="#F8F8F8"/>
<rect x="17" y="5" width="1" height="1" fill="#F8F8F8"/>
<rect x="16" y="5" width="1" height="1" fill="#F8F8F8"/>
<rect x="14" y="5" width="1" height="1" fill="#F8F8F8"/>
<rect x="18" y="7" width="1" height="1" fill="#F8F8F8"/>
<rect x="19" y="7" width="1" height="1" fill="#F8F8F8"/>
<rect x="18" y="8" width="1" height="1" fill="#F8F8F8"/>
<rect x="17" y="6" width="1" height="1" fill="#F8F8F8"/>
<rect x="16" y="7" width="1" height="1" fill="#F8F8F8"/>
<rect x="16" y="6" width="1" height="1" fill="#F8F8F8"/>
<rect x="15" y="7" width="1" height="1" fill="#F8F8F8"/>
<rect x="15" y="6" width="1" height="1" fill="#F8F8F8"/>
<rect x="7" y="2" width="1" height="1" fill="#E09088"/>
<rect x="6" y="3" width="1" height="1" fill="#E09088"/>
<rect x="5" y="5" width="1" height="1" fill="#E09088"/>
<rect x="5" y="6" width="1" height="1" fill="#E09088"/>
<rect x="5" y="7" width="1" height="1" fill="#E09088"/>
<rect x="8" y="9" width="1" height="1" fill="#E09088"/>
<rect x="9" y="10" width="1" height="1" fill="#E09088"/>
<rect x="11" y="11" width="1" height="1" fill="#E09088"/>
<rect x="16" y="12" width="1" height="1" fill="#E09088"/>
<rect x="15" y="12" width="1" height="1" fill="#E09088"/>
<rect x="11" y="13" width="1" height="1" fill="#E09088"/>
<rect x="10" y="14" width="1" height="1" fill="#E09088"/>
<rect x="10" y="15" width="1" height="1" fill="#E09088"/>
<rect x="10" y="16" width="1" height="1" fill="#E09088"/>
<rect x="10" y="19" width="1" height="1" fill="#E09088"/>
<rect x="18" y="20" width="1" height="1" fill="#E09088"/>
<rect x="11" y="19" width="1" height="1" fill="#E09088"/>
<rect x="19" y="20" width="1" height="1" fill="#E09088"/>
<rect x="11" y="17" width="1" height="1" fill="#E09088"/>
<rect x="16" y="14" width="1" height="1" fill="#E09088"/>
<rect x="16" y="15" width="1" height="1" fill="#E09088"/>
<rect x="10" y="13" width="1" height="1" fill="#E09088"/>
<rect x="9" y="14" width="1" height="1" fill="#E09088"/>
<rect x="9" y="15" width="1" height="1" fill="#E09088"/>
<rect x="10" y="17" width="1" height="1" fill="#E09088"/>
<rect x="10" y="20" width="1" height="1" fill="#E09088"/>
<rect x="18" y="21" width="1" height="1" fill="#E09088"/>
<rect x="14" y="18" width="1" height="1" fill="#E09088"/>
<rect x="10" y="21" width="1" height="1" fill="#E09088"/>
<rect x="2" y="29" width="1" height="1" fill="#E09088"/>
<rect x="1" y="32" width="1" height="1" fill="#E09088"/>
<rect x="2" y="30" width="1" height="1" fill="#E09088"/>
<rect x="3" y="30" width="1" height="1" fill="#E09088"/>
<rect x="4" y="30" width="1" height="1" fill="#E09088"/>
<rect x="4" y="37" width="1" height="1" fill="#E09088"/>
<rect x="7" y="40" width="1" height="1" fill="#E09088"/>
<rect x="7" y="42" width="1" height="1" fill="#E09088"/>
<rect x="8" y="41" width="1" height="1" fill="#E09088"/>
<rect x="7" y="44" width="1" height="1" fill="#E09088"/>
<rect x="8" y="43" width="1" height="1" fill="#E09088"/>
<rect x="9" y="40" width="1" height="1" fill="#E09088"/>
<rect x="10" y="41" width="1" height="1" fill="#E09088"/>
<rect x="15" y="40" width="1" height="1" fill="#E09088"/>
<rect x="16" y="43" width="1" height="1" fill="#E09088"/>
<rect x="17" y="40" width="1" height="1" fill="#E09088"/>
<rect x="18" y="43" width="1" height="1" fill="#E09088"/>
<rect x="17" y="42" width="1" height="1" fill="#E09088"/>
<rect x="16" y="41" width="1" height="1" fill="#E09088"/>
<rect x="9" y="42" width="1" height="1" fill="#E09088"/>
<rect x="9" y="44" width="1" height="1" fill="#E09088"/>
<rect x="8" y="52" width="1" height="1" fill="#E09088"/>
<rect x="20" y="52" width="1" height="1" fill="#E09088"/>
<rect x="7" y="52" width="1" height="1" fill="#E09088"/>
<rect x="19" y="52" width="1" height="1" fill="#E09088"/>
<rect x="6" y="52" width="1" height="1" fill="#E09088"/>
<rect x="18" y="52" width="1" height="1" fill="#E09088"/>
<rect x="18" y="49" width="1" height="1" fill="#E09088"/>
<rect x="5" y="52" width="1" height="1" fill="#E09088"/>
<rect x="2" y="31" width="1" height="1" fill="#E09088"/>
<rect x="1" y="33" width="1" height="1" fill="#E09088"/>
<rect x="18" y="22" width="1" height="1" fill="#E09088"/>
<rect x="14" y="19" width="1" height="1" fill="#E09088"/>
<rect x="13" y="19" width="1" height="1" fill="#E09088"/>
<rect x="12" y="20" width="1" height="1" fill="#E09088"/>
<rect x="14" y="20" width="1" height="1" fill="#E09088"/>
<rect x="11" y="20" width="1" height="1" fill="#E09088"/>
<rect x="19" y="21" width="1" height="1" fill="#E09088"/>
<rect x="20" y="21" width="1" height="1" fill="#E09088"/>
<rect x="21" y="22" width="1" height="1" fill="#E09088"/>
<rect x="20" y="23" width="1" height="1" fill="#E09088"/>
<rect x="19" y="24" width="1" height="1" fill="#E09088"/>
<rect x="22" y="29" width="1" height="1" fill="#E09088"/>
<rect x="21" y="28" width="1" height="1" fill="#E09088"/>
<rect x="21" y="29" width="1" height="1" fill="#E09088"/>
<rect x="20" y="28" width="1" height="1" fill="#E09088"/>
<rect x="20" y="29" width="1" height="1" fill="#E09088"/>
<rect x="19" y="34" width="1" height="1" fill="#E09088"/>
<rect x="15" y="18" width="1" height="1" fill="#E09088"/>
<rect x="17" y="19" width="1" height="1" fill="#E09088"/>
<rect x="11" y="21" width="1" height="1" fill="#E09088"/>
<rect x="19" y="22" width="1" height="1" fill="#E09088"/>
<rect x="15" y="19" width="1" height="1" fill="#E09088"/>
<rect x="17" y="20" width="1" height="1" fill="#E09088"/>
<rect x="15" y="14" width="1" height="1" fill="#E09088"/>
<rect x="14" y="14" width="1" height="1" fill="#E09088"/>
<rect x="13" y="15" width="1" height="1" fill="#E09088"/>
<rect x="12" y="14" width="1" height="1" fill="#E09088"/>
<rect x="15" y="15" width="1" height="1" fill="#E09088"/>
<rect x="14" y="15" width="1" height="1" fill="#E09088"/>
<rect x="14" y="16" width="1" height="1" fill="#E09088"/>
<rect x="13" y="16" width="1" height="1" fill="#E09088"/>
<rect x="12" y="15" width="1" height="1" fill="#E09088"/>
<rect x="11" y="15" width="1" height="1" fill="#E09088"/>
<rect x="12" y="17" width="1" height="1" fill="#E09088"/>
<rect x="13" y="11" width="1" height="1" fill="#E09088"/>
<rect x="18" y="12" width="1" height="1" fill="#E09088"/>
<rect x="10" y="10" width="1" height="1" fill="#E09088"/>
<rect x="12" y="11" width="1" height="1" fill="#E09088"/>
<rect x="17" y="12" width="1" height="1" fill="#E09088"/>
<rect x="14" y="11" width="1" height="1" fill="#E09088"/>
<rect x="19" y="12" width="1" height="1" fill="#E09088"/>
<rect x="5" y="12" width="1" height="1" fill="#E09088"/>
<rect x="9" y="1" width="1" height="1" fill="#E09088"/>
<rect x="8" y="2" width="1" height="1" fill="#E09088"/>
<rect x="7" y="3" width="1" height="1" fill="#E09088"/>
<rect x="6" y="5" width="1" height="1" fill="#E09088"/>
<rect x="6" y="4" width="1" height="1" fill="#E09088"/>
<rect x="15" y="2" width="1" height="1" fill="#E09088"/>
<rect x="15" y="4" width="1" height="1" fill="#E09088"/>
<rect x="14" y="6" width="1" height="1" fill="#E09088"/>
<rect x="15" y="3" width="1" height="1" fill="#E09088"/>
<rect x="15" y="5" width="1" height="1" fill="#E09088"/>
<rect x="14" y="7" width="1" height="1" fill="#E09088"/>
<rect x="6" y="6" width="1" height="1" fill="#E09088"/>
</svg>
