<svg width="44" height="44" viewBox="0 0 44 44" fill="none" xmlns="http://www.w3.org/2000/svg">
	<rect x="16" width="2" height="2" fill="#686868" />
	<rect width="2" height="2" transform="matrix(1 0 0 -1 16 44)" fill="#686868" />
	<rect width="2" height="2" transform="matrix(-1 0 0 1 28 0)" fill="#686868" />
	<rect x="28" y="44" width="2" height="2" transform="rotate(180 28 44)" fill="#686868" />
	<rect x="12" y="2" width="2" height="2" fill="#686868" />
	<rect width="2" height="2" transform="matrix(1 0 0 -1 12 42)" fill="#686868" />
	<rect width="2" height="2" transform="matrix(-1 0 0 1 32 2)" fill="#686868" />
	<rect x="32" y="42" width="2" height="2" transform="rotate(180 32 42)" fill="#686868" />
	<rect x="10" y="2" width="2" height="2" fill="#686868" />
	<rect width="2" height="2" transform="matrix(1 0 0 -1 10 42)" fill="#686868" />
	<rect width="2" height="2" transform="matrix(-1 0 0 1 34 2)" fill="#686868" />
	<rect x="34" y="42" width="2" height="2" transform="rotate(180 34 42)" fill="#686868" />
	<rect x="8" y="4" width="2" height="2" fill="#686868" />
	<rect width="2" height="2" transform="matrix(1 0 0 -1 8 40)" fill="#686868" />
	<rect width="2" height="2" transform="matrix(-1 0 0 1 36 4)" fill="#686868" />
	<rect x="36" y="40" width="2" height="2" transform="rotate(180 36 40)" fill="#686868" />
	<rect x="6" y="6" width="2" height="2" fill="#686868" />
	<rect width="2" height="2" transform="matrix(1 0 0 -1 6 38)" fill="#686868" />
	<rect width="2" height="2" transform="matrix(-1 0 0 1 38 6)" fill="#686868" />
	<rect x="38" y="38" width="2" height="2" transform="rotate(180 38 38)" fill="#686868" />
	<rect x="4" y="8" width="2" height="2" fill="#686868" />
	<rect width="2" height="2" transform="matrix(1 0 0 -1 4 36)" fill="#686868" />
	<rect width="2" height="2" transform="matrix(-1 0 0 1 40 8)" fill="#686868" />
	<rect x="40" y="36" width="2" height="2" transform="rotate(180 40 36)" fill="#686868" />
	<rect x="2" y="10" width="2" height="2" fill="#686868" />
	<rect width="2" height="2" transform="matrix(1 0 0 -1 2 34)" fill="#686868" />
	<rect width="2" height="2" transform="matrix(-1 0 0 1 42 10)" fill="#686868" />
	<rect x="42" y="34" width="2" height="2" transform="rotate(180 42 34)" fill="#686868" />
	<rect x="2" y="14" width="2" height="2" fill="#686868" />
	<rect width="2" height="2" transform="matrix(1 0 0 -1 2 30)" fill="#686868" />
	<rect width="2" height="2" transform="matrix(-1 0 0 1 42 14)" fill="#686868" />
	<rect x="42" y="30" width="2" height="2" transform="rotate(180 42 30)" fill="#686868" />
	<rect y="16" width="2" height="2" fill="#686868" />
	<rect width="2" height="2" transform="matrix(1 0 0 -1 0 28)" fill="#686868" />
	<rect width="2" height="2" transform="matrix(-1 0 0 1 44 16)" fill="#686868" />
	<rect x="44" y="28" width="2" height="2" transform="rotate(180 44 28)" fill="#686868" />
	<rect y="18" width="2" height="2" fill="#686868" />
	<rect width="2" height="2" transform="matrix(1 0 0 -1 0 26)" fill="#686868" />
	<rect width="2" height="2" transform="matrix(-1 0 0 1 44 18)" fill="#686868" />
	<rect x="44" y="26" width="2" height="2" transform="rotate(180 44 26)" fill="#686868" />
	<rect x="2" y="20" width="2" height="2" fill="#686868" />
	<rect width="2" height="2" transform="matrix(1 0 0 -1 2 24)" fill="#686868" />
	<rect width="2" height="2" transform="matrix(-1 0 0 1 42 20)" fill="#686868" />
	<rect x="42" y="24" width="2" height="2" transform="rotate(180 42 24)" fill="#686868" />
	<rect x="2" y="12" width="2" height="2" fill="#686868" />
	<rect width="2" height="2" transform="matrix(1 0 0 -1 2 32)" fill="#686868" />
	<rect width="2" height="2" transform="matrix(-1 0 0 1 42 12)" fill="#686868" />
	<rect x="42" y="32" width="2" height="2" transform="rotate(180 42 32)" fill="#686868" />
	<rect x="20" y="2" width="2" height="2" fill="#686868" />
	<rect width="2" height="2" transform="matrix(1 0 0 -1 20 42)" fill="#686868" />
	<rect width="2" height="2" transform="matrix(-1 0 0 1 24 2)" fill="#686868" />
	<rect x="24" y="42" width="2" height="2" transform="rotate(180 24 42)" fill="#686868" />
	<rect x="20" y="8" width="2" height="2" fill="#686868" />
	<rect width="2" height="2" transform="matrix(1 0 0 -1 20 36)" fill="#686868" />
	<rect width="2" height="2" transform="matrix(-1 0 0 1 24 8)" fill="#686868" />
	<rect x="24" y="36" width="2" height="2" transform="rotate(180 24 36)" fill="#686868" />
	<rect x="16" y="10" width="2" height="2" fill="#686868" />
	<rect width="2" height="2" transform="matrix(1 0 0 -1 16 34)" fill="#686868" />
	<rect width="2" height="2" transform="matrix(-1 0 0 1 28 10)" fill="#686868" />
	<rect x="28" y="34" width="2" height="2" transform="rotate(180 28 34)" fill="#686868" />
	<rect x="16" y="12" width="2" height="2" fill="#686868" />
	<rect width="2" height="2" transform="matrix(1 0 0 -1 16 32)" fill="#686868" />
	<rect width="2" height="2" transform="matrix(-1 0 0 1 28 12)" fill="#686868" />
	<rect x="28" y="32" width="2" height="2" transform="rotate(180 28 32)" fill="#686868" />
	<rect x="12" y="18" width="2" height="2" fill="#686868" />
	<rect width="2" height="2" transform="matrix(1 0 0 -1 12 26)" fill="#686868" />
	<rect width="2" height="2" transform="matrix(-1 0 0 1 32 18)" fill="#686868" />
	<rect x="32" y="26" width="2" height="2" transform="rotate(180 32 26)" fill="#686868" />
	<rect x="8" y="20" width="2" height="2" fill="#686868" />
	<rect width="2" height="2" transform="matrix(1 0 0 -1 8 24)" fill="#686868" />
	<rect width="2" height="2" transform="matrix(-1 0 0 1 36 20)" fill="#686868" />
	<rect x="36" y="24" width="2" height="2" transform="rotate(180 36 24)" fill="#686868" />
	<rect x="14" y="14" width="2" height="2" fill="#686868" />
	<rect width="2" height="2" transform="matrix(1 0 0 -1 14 30)" fill="#686868" />
	<rect width="2" height="2" transform="matrix(-1 0 0 1 30 14)" fill="#686868" />
	<rect x="30" y="30" width="2" height="2" transform="rotate(180 30 30)" fill="#686868" />
	<rect x="14" y="16" width="2" height="2" fill="#686868" />
	<rect width="2" height="2" transform="matrix(1 0 0 -1 14 28)" fill="#686868" />
	<rect width="2" height="2" transform="matrix(-1 0 0 1 30 16)" fill="#686868" />
	<rect x="30" y="28" width="2" height="2" transform="rotate(180 30 28)" fill="#686868" />
	<rect x="20" y="10" width="2" height="2" fill="#686868" />
	<rect width="2" height="2" transform="matrix(1 0 0 -1 20 34)" fill="#686868" />
	<rect width="2" height="2" transform="matrix(-1 0 0 1 24 10)" fill="#686868" />
	<rect x="24" y="34" width="2" height="2" transform="rotate(180 24 34)" fill="#686868" />
	<rect x="20" y="12" width="2" height="2" fill="#686868" />
	<rect width="2" height="2" transform="matrix(1 0 0 -1 20 32)" fill="#686868" />
	<rect width="2" height="2" transform="matrix(-1 0 0 1 24 12)" fill="#686868" />
	<rect x="24" y="32" width="2" height="2" transform="rotate(180 24 32)" fill="#686868" />
	<rect x="16" y="18" width="2" height="2" fill="#686868" />
	<rect width="2" height="2" transform="matrix(1 0 0 -1 16 26)" fill="#686868" />
	<rect width="2" height="2" transform="matrix(-1 0 0 1 28 18)" fill="#686868" />
	<rect x="28" y="26" width="2" height="2" transform="rotate(180 28 26)" fill="#686868" />
	<rect x="12" y="20" width="2" height="2" fill="#686868" />
	<rect width="2" height="2" transform="matrix(1 0 0 -1 12 24)" fill="#686868" />
	<rect width="2" height="2" transform="matrix(-1 0 0 1 32 20)" fill="#686868" />
	<rect x="32" y="24" width="2" height="2" transform="rotate(180 32 24)" fill="#686868" />
	<rect x="18" y="14" width="2" height="2" fill="#686868" />
	<rect width="2" height="2" transform="matrix(1 0 0 -1 18 30)" fill="#686868" />
	<rect width="2" height="2" transform="matrix(-1 0 0 1 26 14)" fill="#686868" />
	<rect x="26" y="30" width="2" height="2" transform="rotate(180 26 30)" fill="#686868" />
	<rect x="18" y="16" width="2" height="2" fill="#686868" />
	<rect width="2" height="2" transform="matrix(1 0 0 -1 18 28)" fill="#686868" />
	<rect width="2" height="2" transform="matrix(-1 0 0 1 26 16)" fill="#686868" />
	<rect x="26" y="28" width="2" height="2" transform="rotate(180 26 28)" fill="#686868" />
	<rect x="18" width="2" height="2" fill="#686868" />
	<rect width="2" height="2" transform="matrix(1 0 0 -1 18 44)" fill="#686868" />
	<rect width="2" height="2" transform="matrix(-1 0 0 1 26 0)" fill="#686868" />
	<rect x="26" y="44" width="2" height="2" transform="rotate(180 26 44)" fill="#686868" />
	<rect x="14" y="2" width="2" height="2" fill="#686868" />
	<rect width="2" height="2" transform="matrix(1 0 0 -1 14 42)" fill="#686868" />
	<rect width="2" height="2" transform="matrix(-1 0 0 1 30 2)" fill="#686868" />
	<rect x="30" y="42" width="2" height="2" transform="rotate(180 30 42)" fill="#686868" />
	<rect x="18" y="10" width="2" height="2" fill="#686868" />
	<rect width="2" height="2" transform="matrix(1 0 0 -1 18 34)" fill="#686868" />
	<rect width="2" height="2" transform="matrix(-1 0 0 1 26 10)" fill="#686868" />
	<rect x="26" y="34" width="2" height="2" transform="rotate(180 26 34)" fill="#686868" />
	<rect x="18" y="12" width="2" height="2" fill="#686868" />
	<rect width="2" height="2" transform="matrix(1 0 0 -1 18 32)" fill="#686868" />
	<rect width="2" height="2" transform="matrix(-1 0 0 1 26 12)" fill="#686868" />
	<rect x="26" y="32" width="2" height="2" transform="rotate(180 26 32)" fill="#686868" />
	<rect x="14" y="18" width="2" height="2" fill="#686868" />
	<rect width="2" height="2" transform="matrix(1 0 0 -1 14 26)" fill="#686868" />
	<rect width="2" height="2" transform="matrix(-1 0 0 1 30 18)" fill="#686868" />
	<rect x="30" y="26" width="2" height="2" transform="rotate(180 30 26)" fill="#686868" />
	<rect x="10" y="20" width="2" height="2" fill="#686868" />
	<rect width="2" height="2" transform="matrix(1 0 0 -1 10 24)" fill="#686868" />
	<rect width="2" height="2" transform="matrix(-1 0 0 1 34 20)" fill="#686868" />
	<rect x="34" y="24" width="2" height="2" transform="rotate(180 34 24)" fill="#686868" />
	<rect x="10" y="16" width="2" height="2" fill="#686868" />
	<rect width="2" height="2" transform="matrix(1 0 0 -1 10 28)" fill="#686868" />
	<rect width="2" height="2" transform="matrix(-1 0 0 1 34 16)" fill="#686868" />
	<rect x="34" y="28" width="2" height="2" transform="rotate(180 34 28)" fill="#686868" />
	<rect x="12" y="16" width="2" height="2" fill="#686868" />
	<rect width="2" height="2" transform="matrix(1 0 0 -1 12 28)" fill="#686868" />
	<rect width="2" height="2" transform="matrix(-1 0 0 1 32 16)" fill="#686868" />
	<rect x="32" y="28" width="2" height="2" transform="rotate(180 32 28)" fill="#686868" />
	<rect x="10" y="18" width="2" height="2" fill="#686868" />
	<rect width="2" height="2" transform="matrix(1 0 0 -1 10 26)" fill="#686868" />
	<rect width="2" height="2" transform="matrix(-1 0 0 1 34 18)" fill="#686868" />
	<rect x="34" y="26" width="2" height="2" transform="rotate(180 34 26)" fill="#686868" />
	<rect x="16" y="14" width="2" height="2" fill="#686868" />
	<rect width="2" height="2" transform="matrix(1 0 0 -1 16 30)" fill="#686868" />
	<rect width="2" height="2" transform="matrix(-1 0 0 1 28 14)" fill="#686868" />
	<rect x="28" y="30" width="2" height="2" transform="rotate(180 28 30)" fill="#686868" />
	<rect x="16" y="16" width="2" height="2" fill="#686868" />
	<rect width="2" height="2" transform="matrix(1 0 0 -1 16 28)" fill="#686868" />
	<rect width="2" height="2" transform="matrix(-1 0 0 1 28 16)" fill="#686868" />
	<rect x="28" y="28" width="2" height="2" transform="rotate(180 28 28)" fill="#686868" />
	<rect x="4" y="20" width="2" height="2" fill="#C8C8C8" />
	<rect width="2" height="2" transform="matrix(1 0 0 -1 4 24)" fill="#C8C8C8" />
	<rect width="2" height="2" transform="matrix(-1 0 0 1 40 20)" fill="#C8C8C8" />
	<rect x="40" y="24" width="2" height="2" transform="rotate(180 40 24)" fill="#C8C8C8" />
	<rect x="2" y="18" width="2" height="2" fill="#C8C8C8" />
	<rect width="2" height="2" transform="matrix(1 0 0 -1 2 26)" fill="#C8C8C8" />
	<rect width="2" height="2" transform="matrix(-1 0 0 1 42 18)" fill="#C8C8C8" />
	<rect x="42" y="26" width="2" height="2" transform="rotate(180 42 26)" fill="#C8C8C8" />
	<rect x="6" y="18" width="2" height="2" fill="#C8C8C8" />
	<rect width="2" height="2" transform="matrix(1 0 0 -1 6 26)" fill="#C8C8C8" />
	<rect width="2" height="2" transform="matrix(-1 0 0 1 38 18)" fill="#C8C8C8" />
	<rect x="38" y="26" width="2" height="2" transform="rotate(180 38 26)" fill="#C8C8C8" />
	<rect x="4" y="14" width="2" height="2" fill="#C8C8C8" />
	<rect width="2" height="2" transform="matrix(1 0 0 -1 4 30)" fill="#C8C8C8" />
	<rect width="2" height="2" transform="matrix(-1 0 0 1 40 14)" fill="#C8C8C8" />
	<rect x="40" y="30" width="2" height="2" transform="rotate(180 40 30)" fill="#C8C8C8" />
	<rect x="8" y="14" width="2" height="2" fill="#C8C8C8" />
	<rect width="2" height="2" transform="matrix(1 0 0 -1 8 30)" fill="#C8C8C8" />
	<rect width="2" height="2" transform="matrix(-1 0 0 1 36 14)" fill="#C8C8C8" />
	<rect x="36" y="30" width="2" height="2" transform="rotate(180 36 30)" fill="#C8C8C8" />
	<rect x="18" y="6" width="2" height="2" fill="#C8C8C8" />
	<rect width="2" height="2" transform="matrix(1 0 0 -1 18 38)" fill="#C8C8C8" />
	<rect width="2" height="2" transform="matrix(-1 0 0 1 26 6)" fill="#C8C8C8" />
	<rect x="26" y="38" width="2" height="2" transform="rotate(180 26 38)" fill="#C8C8C8" />
	<rect x="14" y="6" width="2" height="2" fill="#C8C8C8" />
	<rect width="2" height="2" transform="matrix(1 0 0 -1 14 38)" fill="#C8C8C8" />
	<rect width="2" height="2" transform="matrix(-1 0 0 1 30 6)" fill="#C8C8C8" />
	<rect x="30" y="38" width="2" height="2" transform="rotate(180 30 38)" fill="#C8C8C8" />
	<rect x="16" y="8" width="2" height="2" fill="#C8C8C8" />
	<rect width="2" height="2" transform="matrix(1 0 0 -1 16 36)" fill="#C8C8C8" />
	<rect width="2" height="2" transform="matrix(-1 0 0 1 28 8)" fill="#C8C8C8" />
	<rect x="28" y="36" width="2" height="2" transform="rotate(180 28 36)" fill="#C8C8C8" />
	<rect x="12" y="10" width="2" height="2" fill="#C8C8C8" />
	<rect width="2" height="2" transform="matrix(1 0 0 -1 12 34)" fill="#C8C8C8" />
	<rect width="2" height="2" transform="matrix(-1 0 0 1 32 10)" fill="#C8C8C8" />
	<rect x="32" y="34" width="2" height="2" transform="rotate(180 32 34)" fill="#C8C8C8" />
	<rect x="12" y="14" width="2" height="2" fill="#C8C8C8" />
	<rect width="2" height="2" transform="matrix(1 0 0 -1 12 30)" fill="#C8C8C8" />
	<rect width="2" height="2" transform="matrix(-1 0 0 1 32 14)" fill="#C8C8C8" />
	<rect x="32" y="30" width="2" height="2" transform="rotate(180 32 30)" fill="#C8C8C8" />
	<rect x="10" y="6" width="2" height="2" fill="#C8C8C8" />
	<rect width="2" height="2" transform="matrix(1 0 0 -1 10 38)" fill="#C8C8C8" />
	<rect width="2" height="2" transform="matrix(-1 0 0 1 34 6)" fill="#C8C8C8" />
	<rect x="34" y="38" width="2" height="2" transform="rotate(180 34 38)" fill="#C8C8C8" />
	<rect x="12" y="8" width="2" height="2" fill="#C8C8C8" />
	<rect width="2" height="2" transform="matrix(1 0 0 -1 12 36)" fill="#C8C8C8" />
	<rect width="2" height="2" transform="matrix(-1 0 0 1 32 8)" fill="#C8C8C8" />
	<rect x="32" y="36" width="2" height="2" transform="rotate(180 32 36)" fill="#C8C8C8" />
	<rect x="12" y="12" width="2" height="2" fill="#C8C8C8" />
	<rect width="2" height="2" transform="matrix(1 0 0 -1 12 32)" fill="#C8C8C8" />
	<rect width="2" height="2" transform="matrix(-1 0 0 1 32 12)" fill="#C8C8C8" />
	<rect x="32" y="32" width="2" height="2" transform="rotate(180 32 32)" fill="#C8C8C8" />
	<rect x="8" y="10" width="2" height="2" fill="#C8C8C8" />
	<rect width="2" height="2" transform="matrix(1 0 0 -1 8 34)" fill="#C8C8C8" />
	<rect width="2" height="2" transform="matrix(-1 0 0 1 36 10)" fill="#C8C8C8" />
	<rect x="36" y="34" width="2" height="2" transform="rotate(180 36 34)" fill="#C8C8C8" />
	<rect x="6" y="10" width="2" height="2" fill="#C8C8C8" />
	<rect width="2" height="2" transform="matrix(1 0 0 -1 6 34)" fill="#C8C8C8" />
	<rect width="2" height="2" transform="matrix(-1 0 0 1 38 10)" fill="#C8C8C8" />
	<rect x="38" y="34" width="2" height="2" transform="rotate(180 38 34)" fill="#C8C8C8" />
	<rect x="4" y="10" width="2" height="2" fill="#C8C8C8" />
	<rect width="2" height="2" transform="matrix(1 0 0 -1 4 34)" fill="#C8C8C8" />
	<rect width="2" height="2" transform="matrix(-1 0 0 1 40 10)" fill="#C8C8C8" />
	<rect x="40" y="34" width="2" height="2" transform="rotate(180 40 34)" fill="#C8C8C8" />
	<rect x="6" y="8" width="2" height="2" fill="#C8C8C8" />
	<rect width="2" height="2" transform="matrix(1 0 0 -1 6 36)" fill="#C8C8C8" />
	<rect width="2" height="2" transform="matrix(-1 0 0 1 38 8)" fill="#C8C8C8" />
	<rect x="38" y="36" width="2" height="2" transform="rotate(180 38 36)" fill="#C8C8C8" />
	<rect x="8" y="8" width="2" height="2" fill="#C8C8C8" />
	<rect width="2" height="2" transform="matrix(1 0 0 -1 8 36)" fill="#C8C8C8" />
	<rect width="2" height="2" transform="matrix(-1 0 0 1 36 8)" fill="#C8C8C8" />
	<rect x="36" y="36" width="2" height="2" transform="rotate(180 36 36)" fill="#C8C8C8" />
	<rect x="8" y="6" width="2" height="2" fill="#C8C8C8" />
	<rect width="2" height="2" transform="matrix(1 0 0 -1 8 38)" fill="#C8C8C8" />
	<rect width="2" height="2" transform="matrix(-1 0 0 1 36 6)" fill="#C8C8C8" />
	<rect x="36" y="38" width="2" height="2" transform="rotate(180 36 38)" fill="#C8C8C8" />
	<rect x="10" y="8" width="2" height="2" fill="#C8C8C8" />
	<rect width="2" height="2" transform="matrix(1 0 0 -1 10 36)" fill="#C8C8C8" />
	<rect width="2" height="2" transform="matrix(-1 0 0 1 34 8)" fill="#C8C8C8" />
	<rect x="34" y="36" width="2" height="2" transform="rotate(180 34 36)" fill="#C8C8C8" />
	<rect x="2" y="16" width="2" height="2" fill="#C8C8C8" />
	<rect width="2" height="2" transform="matrix(1 0 0 -1 2 28)" fill="#C8C8C8" />
	<rect width="2" height="2" transform="matrix(-1 0 0 1 42 16)" fill="#C8C8C8" />
	<rect x="42" y="28" width="2" height="2" transform="rotate(180 42 28)" fill="#C8C8C8" />
	<rect x="6" y="16" width="2" height="2" fill="#C8C8C8" />
	<rect width="2" height="2" transform="matrix(1 0 0 -1 6 28)" fill="#C8C8C8" />
	<rect width="2" height="2" transform="matrix(-1 0 0 1 38 16)" fill="#C8C8C8" />
	<rect x="38" y="28" width="2" height="2" transform="rotate(180 38 28)" fill="#C8C8C8" />
	<rect x="4" y="12" width="2" height="2" fill="#C8C8C8" />
	<rect width="2" height="2" transform="matrix(1 0 0 -1 4 32)" fill="#C8C8C8" />
	<rect width="2" height="2" transform="matrix(-1 0 0 1 40 12)" fill="#C8C8C8" />
	<rect x="40" y="32" width="2" height="2" transform="rotate(180 40 32)" fill="#C8C8C8" />
	<rect x="8" y="12" width="2" height="2" fill="#C8C8C8" />
	<rect width="2" height="2" transform="matrix(1 0 0 -1 8 32)" fill="#C8C8C8" />
	<rect width="2" height="2" transform="matrix(-1 0 0 1 36 12)" fill="#C8C8C8" />
	<rect x="36" y="32" width="2" height="2" transform="rotate(180 36 32)" fill="#C8C8C8" />
	<rect x="18" y="4" width="2" height="2" fill="#C8C8C8" />
	<rect width="2" height="2" transform="matrix(1 0 0 -1 18 40)" fill="#C8C8C8" />
	<rect width="2" height="2" transform="matrix(-1 0 0 1 26 4)" fill="#C8C8C8" />
	<rect x="26" y="40" width="2" height="2" transform="rotate(180 26 40)" fill="#C8C8C8" />
	<rect x="18" y="2" width="2" height="2" fill="#C8C8C8" />
	<rect width="2" height="2" transform="matrix(1 0 0 -1 18 42)" fill="#C8C8C8" />
	<rect width="2" height="2" transform="matrix(-1 0 0 1 26 2)" fill="#C8C8C8" />
	<rect x="26" y="42" width="2" height="2" transform="rotate(180 26 42)" fill="#C8C8C8" />
	<rect x="14" y="4" width="2" height="2" fill="#C8C8C8" />
	<rect width="2" height="2" transform="matrix(1 0 0 -1 14 40)" fill="#C8C8C8" />
	<rect width="2" height="2" transform="matrix(-1 0 0 1 30 4)" fill="#C8C8C8" />
	<rect x="30" y="40" width="2" height="2" transform="rotate(180 30 40)" fill="#C8C8C8" />
	<rect x="10" y="4" width="2" height="2" fill="#C8C8C8" />
	<rect width="2" height="2" transform="matrix(1 0 0 -1 10 40)" fill="#C8C8C8" />
	<rect width="2" height="2" transform="matrix(-1 0 0 1 34 4)" fill="#C8C8C8" />
	<rect x="34" y="40" width="2" height="2" transform="rotate(180 34 40)" fill="#C8C8C8" />
	<rect x="6" y="20" width="2" height="2" fill="#C8C8C8" />
	<rect width="2" height="2" transform="matrix(1 0 0 -1 6 24)" fill="#C8C8C8" />
	<rect width="2" height="2" transform="matrix(-1 0 0 1 38 20)" fill="#C8C8C8" />
	<rect x="38" y="24" width="2" height="2" transform="rotate(180 38 24)" fill="#C8C8C8" />
	<rect x="4" y="18" width="2" height="2" fill="#C8C8C8" />
	<rect width="2" height="2" transform="matrix(1 0 0 -1 4 26)" fill="#C8C8C8" />
	<rect width="2" height="2" transform="matrix(-1 0 0 1 40 18)" fill="#C8C8C8" />
	<rect x="40" y="26" width="2" height="2" transform="rotate(180 40 26)" fill="#C8C8C8" />
	<rect x="8" y="18" width="2" height="2" fill="#C8C8C8" />
	<rect width="2" height="2" transform="matrix(1 0 0 -1 8 26)" fill="#C8C8C8" />
	<rect width="2" height="2" transform="matrix(-1 0 0 1 36 18)" fill="#C8C8C8" />
	<rect x="36" y="26" width="2" height="2" transform="rotate(180 36 26)" fill="#C8C8C8" />
	<rect x="6" y="14" width="2" height="2" fill="#C8C8C8" />
	<rect width="2" height="2" transform="matrix(1 0 0 -1 6 30)" fill="#C8C8C8" />
	<rect width="2" height="2" transform="matrix(-1 0 0 1 38 14)" fill="#C8C8C8" />
	<rect x="38" y="30" width="2" height="2" transform="rotate(180 38 30)" fill="#C8C8C8" />
	<rect x="10" y="14" width="2" height="2" fill="#C8C8C8" />
	<rect width="2" height="2" transform="matrix(1 0 0 -1 10 30)" fill="#C8C8C8" />
	<rect width="2" height="2" transform="matrix(-1 0 0 1 34 14)" fill="#C8C8C8" />
	<rect x="34" y="30" width="2" height="2" transform="rotate(180 34 30)" fill="#C8C8C8" />
	<rect x="20" y="6" width="2" height="2" fill="#C8C8C8" />
	<rect width="2" height="2" transform="matrix(1 0 0 -1 20 38)" fill="#C8C8C8" />
	<rect width="2" height="2" transform="matrix(-1 0 0 1 24 6)" fill="#C8C8C8" />
	<rect x="24" y="38" width="2" height="2" transform="rotate(180 24 38)" fill="#C8C8C8" />
	<rect x="16" y="6" width="2" height="2" fill="#C8C8C8" />
	<rect width="2" height="2" transform="matrix(1 0 0 -1 16 38)" fill="#C8C8C8" />
	<rect width="2" height="2" transform="matrix(-1 0 0 1 28 6)" fill="#C8C8C8" />
	<rect x="28" y="38" width="2" height="2" transform="rotate(180 28 38)" fill="#C8C8C8" />
	<rect x="18" y="8" width="2" height="2" fill="#C8C8C8" />
	<rect width="2" height="2" transform="matrix(1 0 0 -1 18 36)" fill="#C8C8C8" />
	<rect width="2" height="2" transform="matrix(-1 0 0 1 26 8)" fill="#C8C8C8" />
	<rect x="26" y="36" width="2" height="2" transform="rotate(180 26 36)" fill="#C8C8C8" />
	<rect x="14" y="10" width="2" height="2" fill="#C8C8C8" />
	<rect width="2" height="2" transform="matrix(1 0 0 -1 14 34)" fill="#C8C8C8" />
	<rect width="2" height="2" transform="matrix(-1 0 0 1 30 10)" fill="#C8C8C8" />
	<rect x="30" y="34" width="2" height="2" transform="rotate(180 30 34)" fill="#C8C8C8" />
	<rect x="14" y="12" width="2" height="2" fill="#C8C8C8" />
	<rect width="2" height="2" transform="matrix(1 0 0 -1 14 32)" fill="#C8C8C8" />
	<rect width="2" height="2" transform="matrix(-1 0 0 1 30 12)" fill="#C8C8C8" />
	<rect x="30" y="32" width="2" height="2" transform="rotate(180 30 32)" fill="#C8C8C8" />
	<rect x="12" y="6" width="2" height="2" fill="#C8C8C8" />
	<rect width="2" height="2" transform="matrix(1 0 0 -1 12 38)" fill="#C8C8C8" />
	<rect width="2" height="2" transform="matrix(-1 0 0 1 32 6)" fill="#C8C8C8" />
	<rect x="32" y="38" width="2" height="2" transform="rotate(180 32 38)" fill="#C8C8C8" />
	<rect x="14" y="8" width="2" height="2" fill="#C8C8C8" />
	<rect width="2" height="2" transform="matrix(1 0 0 -1 14 36)" fill="#C8C8C8" />
	<rect width="2" height="2" transform="matrix(-1 0 0 1 30 8)" fill="#C8C8C8" />
	<rect x="30" y="36" width="2" height="2" transform="rotate(180 30 36)" fill="#C8C8C8" />
	<rect x="10" y="10" width="2" height="2" fill="#C8C8C8" />
	<rect width="2" height="2" transform="matrix(1 0 0 -1 10 34)" fill="#C8C8C8" />
	<rect width="2" height="2" transform="matrix(-1 0 0 1 34 10)" fill="#C8C8C8" />
	<rect x="34" y="34" width="2" height="2" transform="rotate(180 34 34)" fill="#C8C8C8" />
	<rect x="4" y="16" width="2" height="2" fill="#C8C8C8" />
	<rect width="2" height="2" transform="matrix(1 0 0 -1 4 28)" fill="#C8C8C8" />
	<rect width="2" height="2" transform="matrix(-1 0 0 1 40 16)" fill="#C8C8C8" />
	<rect x="40" y="28" width="2" height="2" transform="rotate(180 40 28)" fill="#C8C8C8" />
	<rect x="8" y="16" width="2" height="2" fill="#C8C8C8" />
	<rect width="2" height="2" transform="matrix(1 0 0 -1 8 28)" fill="#C8C8C8" />
	<rect width="2" height="2" transform="matrix(-1 0 0 1 36 16)" fill="#C8C8C8" />
	<rect x="36" y="28" width="2" height="2" transform="rotate(180 36 28)" fill="#C8C8C8" />
	<rect x="6" y="12" width="2" height="2" fill="#C8C8C8" />
	<rect width="2" height="2" transform="matrix(1 0 0 -1 6 32)" fill="#C8C8C8" />
	<rect width="2" height="2" transform="matrix(-1 0 0 1 38 12)" fill="#C8C8C8" />
	<rect x="38" y="32" width="2" height="2" transform="rotate(180 38 32)" fill="#C8C8C8" />
	<rect x="10" y="12" width="2" height="2" fill="#C8C8C8" />
	<rect width="2" height="2" transform="matrix(1 0 0 -1 10 32)" fill="#C8C8C8" />
	<rect width="2" height="2" transform="matrix(-1 0 0 1 34 12)" fill="#C8C8C8" />
	<rect x="34" y="32" width="2" height="2" transform="rotate(180 34 32)" fill="#C8C8C8" />
	<rect x="20" y="4" width="2" height="2" fill="#C8C8C8" />
	<rect width="2" height="2" transform="matrix(1 0 0 -1 20 40)" fill="#C8C8C8" />
	<rect width="2" height="2" transform="matrix(-1 0 0 1 24 4)" fill="#C8C8C8" />
	<rect x="24" y="40" width="2" height="2" transform="rotate(180 24 40)" fill="#C8C8C8" />
	<rect x="16" y="4" width="2" height="2" fill="#C8C8C8" />
	<rect width="2" height="2" transform="matrix(1 0 0 -1 16 40)" fill="#C8C8C8" />
	<rect width="2" height="2" transform="matrix(-1 0 0 1 28 4)" fill="#C8C8C8" />
	<rect x="28" y="40" width="2" height="2" transform="rotate(180 28 40)" fill="#C8C8C8" />
	<rect x="16" y="2" width="2" height="2" fill="#C8C8C8" />
	<rect width="2" height="2" transform="matrix(1 0 0 -1 16 42)" fill="#C8C8C8" />
	<rect width="2" height="2" transform="matrix(-1 0 0 1 28 2)" fill="#C8C8C8" />
	<rect x="28" y="42" width="2" height="2" transform="rotate(180 28 42)" fill="#C8C8C8" />
	<rect x="12" y="4" width="2" height="2" fill="#C8C8C8" />
	<rect width="2" height="2" transform="matrix(1 0 0 -1 12 40)" fill="#C8C8C8" />
	<rect width="2" height="2" transform="matrix(-1 0 0 1 32 4)" fill="#C8C8C8" />
	<rect x="32" y="40" width="2" height="2" transform="rotate(180 32 40)" fill="#C8C8C8" />
</svg>
