<svg width="64" height="64" viewBox="0 0 64 64" fill="none" xmlns="http://www.w3.org/2000/svg">
	<rect width="2" height="2" transform="matrix(1 0 0 -1 28 60)" fill="#686868" />
	<rect width="2" height="2" transform="matrix(1 0 0 -1 26 62)" fill="#686868" />
	<rect width="2" height="2" transform="matrix(1 0 0 -1 22 64)" fill="#686868" />
	<rect width="2" height="2" transform="matrix(1 0 0 -1 26 60)" fill="#686868" />
	<rect width="2" height="2" transform="matrix(1 0 0 -1 26 58)" fill="#686868" />
	<rect width="2" height="2" transform="matrix(1 0 0 -1 20 58)" fill="#686868" />
	<rect width="2" height="2" transform="matrix(1 0 0 -1 22 58)" fill="#686868" />
	<rect width="2" height="2" transform="matrix(1 0 0 -1 18 56)" fill="#686868" />
	<rect width="2" height="2" transform="matrix(1 0 0 -1 16 62)" fill="#686868" />
	<rect width="2" height="2" transform="matrix(1 0 0 -1 12 60)" fill="#686868" />
	<rect width="2" height="2" transform="matrix(1 0 0 -1 10 50)" fill="#686868" />
	<rect width="2" height="2" transform="matrix(1 0 0 -1 10 48)" fill="#686868" />
	<rect width="2" height="2" transform="matrix(1 0 0 -1 8 46)" fill="#686868" />
	<rect width="2" height="2" transform="matrix(1 0 0 -1 8 44)" fill="#686868" />
	<rect width="2" height="2" transform="matrix(1 0 0 -1 6 40)" fill="#686868" />
	<rect width="2" height="2" transform="matrix(1 0 0 -1 4 38)" fill="#686868" />
	<rect width="2" height="2" transform="matrix(1 0 0 -1 4 36)" fill="#686868" />
	<rect width="2" height="2" transform="matrix(1 0 0 -1 2 40)" fill="#686868" />
	<rect width="2" height="2" transform="matrix(1 0 0 -1 0 44)" fill="#686868" />
	<rect width="2" height="2" transform="matrix(1 0 0 -1 2 50)" fill="#686868" />
	<rect width="2" height="2" transform="matrix(1 0 0 -1 4 54)" fill="#686868" />
	<rect width="2" height="2" transform="matrix(1 0 0 -1 6 56)" fill="#686868" />
	<rect width="2" height="2" transform="matrix(1 0 0 -1 8 58)" fill="#686868" />
	<rect width="2" height="2" transform="matrix(1 0 0 -1 18 64)" fill="#686868" />
	<rect width="2" height="2" transform="matrix(1 0 0 -1 6 42)" fill="#686868" />
	<rect width="2" height="2" transform="matrix(1 0 0 -1 24 62)" fill="#686868" />
	<rect width="2" height="2" transform="matrix(1 0 0 -1 20 64)" fill="#686868" />
	<rect width="2" height="2" transform="matrix(1 0 0 -1 24 60)" fill="#686868" />
	<rect width="2" height="2" transform="matrix(1 0 0 -1 24 58)" fill="#686868" />
	<rect width="2" height="2" transform="matrix(1 0 0 -1 18 58)" fill="#686868" />
	<rect width="2" height="2" transform="matrix(1 0 0 -1 16 56)" fill="#686868" />
	<rect width="2" height="2" transform="matrix(1 0 0 -1 16 54)" fill="#686868" />
	<rect width="2" height="2" transform="matrix(1 0 0 -1 14 56)" fill="#686868" />
	<rect width="2" height="2" transform="matrix(1 0 0 -1 14 54)" fill="#686868" />
	<rect width="2" height="2" transform="matrix(1 0 0 -1 12 52)" fill="#686868" />
	<rect width="2" height="2" transform="matrix(1 0 0 -1 14 62)" fill="#686868" />
	<rect width="2" height="2" transform="matrix(1 0 0 -1 10 60)" fill="#686868" />
	<rect width="2" height="2" transform="matrix(1 0 0 -1 8 50)" fill="#686868" />
	<rect width="2" height="2" transform="matrix(1 0 0 -1 8 48)" fill="#686868" />
	<rect width="2" height="2" transform="matrix(1 0 0 -1 6 46)" fill="#686868" />
	<rect width="2" height="2" transform="matrix(1 0 0 -1 6 44)" fill="#686868" />
	<rect width="2" height="2" transform="matrix(1 0 0 -1 4 40)" fill="#686868" />
	<rect width="2" height="2" transform="matrix(1 0 0 -1 2 38)" fill="#686868" />
	<rect width="2" height="2" transform="matrix(1 0 0 -1 0 42)" fill="#686868" />
	<rect width="2" height="2" transform="matrix(1 0 0 -1 2 48)" fill="#686868" />
	<rect width="2" height="2" transform="matrix(1 0 0 -1 0 46)" fill="#686868" />
	<rect width="2" height="2" transform="matrix(1 0 0 -1 4 52)" fill="#686868" />
	<rect width="2" height="2" transform="matrix(1 0 0 -1 22 60)" fill="#C8C8C8" />
	<rect width="2" height="2" transform="matrix(1 0 0 -1 20 60)" fill="#C8C8C8" />
	<rect width="2" height="2" transform="matrix(1 0 0 -1 18 60)" fill="#C8C8C8" />
	<rect width="2" height="2" transform="matrix(1 0 0 -1 16 58)" fill="#C8C8C8" />
	<rect width="2" height="2" transform="matrix(1 0 0 -1 14 58)" fill="#C8C8C8" />
	<rect width="2" height="2" transform="matrix(1 0 0 -1 12 56)" fill="#C8C8C8" />
	<rect width="2" height="2" transform="matrix(1 0 0 -1 12 54)" fill="#C8C8C8" />
	<rect width="2" height="2" transform="matrix(1 0 0 -1 10 52)" fill="#C8C8C8" />
	<rect width="2" height="2" transform="matrix(1 0 0 -1 10 56)" fill="#C8C8C8" />
	<rect width="2" height="2" transform="matrix(1 0 0 -1 10 54)" fill="#C8C8C8" />
	<rect width="2" height="2" transform="matrix(1 0 0 -1 8 52)" fill="#C8C8C8" />
	<rect width="2" height="2" transform="matrix(1 0 0 -1 8 54)" fill="#C8C8C8" />
	<rect width="2" height="2" transform="matrix(1 0 0 -1 6 52)" fill="#C8C8C8" />
	<rect width="2" height="2" transform="matrix(1 0 0 -1 4 48)" fill="#C8C8C8" />
	<rect width="2" height="2" transform="matrix(1 0 0 -1 6 48)" fill="#C8C8C8" />
	<rect width="2" height="2" transform="matrix(1 0 0 -1 2 44)" fill="#C8C8C8" />
	<rect width="2" height="2" transform="matrix(1 0 0 -1 2 42)" fill="#C8C8C8" />
	<rect width="2" height="2" transform="matrix(1 0 0 -1 4 44)" fill="#C8C8C8" />
	<rect width="2" height="2" transform="matrix(1 0 0 -1 4 42)" fill="#C8C8C8" />
	<rect width="2" height="2" transform="matrix(1 0 0 -1 22 62)" fill="#C8C8C8" />
	<rect width="2" height="2" transform="matrix(1 0 0 -1 20 62)" fill="#C8C8C8" />
	<rect width="2" height="2" transform="matrix(1 0 0 -1 18 62)" fill="#C8C8C8" />
	<rect width="2" height="2" transform="matrix(1 0 0 -1 16 60)" fill="#C8C8C8" />
	<rect width="2" height="2" transform="matrix(1 0 0 -1 14 60)" fill="#C8C8C8" />
	<rect width="2" height="2" transform="matrix(1 0 0 -1 12 58)" fill="#C8C8C8" />
	<rect width="2" height="2" transform="matrix(1 0 0 -1 10 58)" fill="#C8C8C8" />
	<rect width="2" height="2" transform="matrix(1 0 0 -1 8 56)" fill="#C8C8C8" />
	<rect width="2" height="2" transform="matrix(1 0 0 -1 6 54)" fill="#C8C8C8" />
	<rect width="2" height="2" transform="matrix(1 0 0 -1 4 50)" fill="#C8C8C8" />
	<rect width="2" height="2" transform="matrix(1 0 0 -1 6 50)" fill="#C8C8C8" />
	<rect width="2" height="2" transform="matrix(1 0 0 -1 2 46)" fill="#C8C8C8" />
	<rect width="2" height="2" transform="matrix(1 0 0 -1 4 46)" fill="#C8C8C8" />
	<rect width="2" height="2" transform="matrix(-1 0 0 1 36 4)" fill="#686868" />
	<rect width="2" height="2" transform="matrix(-1 0 0 1 38 2)" fill="#686868" />
	<rect width="2" height="2" transform="matrix(-1 0 0 1 42 0)" fill="#686868" />
	<rect width="2" height="2" transform="matrix(-1 0 0 1 38 4)" fill="#686868" />
	<rect width="2" height="2" transform="matrix(-1 0 0 1 38 6)" fill="#686868" />
	<rect width="2" height="2" transform="matrix(-1 0 0 1 44 6)" fill="#686868" />
	<rect width="2" height="2" transform="matrix(-1 0 0 1 42 6)" fill="#686868" />
	<rect width="2" height="2" transform="matrix(-1 0 0 1 46 8)" fill="#686868" />
	<rect width="2" height="2" transform="matrix(-1 0 0 1 48 2)" fill="#686868" />
	<rect width="2" height="2" transform="matrix(-1 0 0 1 52 4)" fill="#686868" />
	<rect width="2" height="2" transform="matrix(-1 0 0 1 54 14)" fill="#686868" />
	<rect width="2" height="2" transform="matrix(-1 0 0 1 54 16)" fill="#686868" />
	<rect width="2" height="2" transform="matrix(-1 0 0 1 56 18)" fill="#686868" />
	<rect width="2" height="2" transform="matrix(-1 0 0 1 56 20)" fill="#686868" />
	<rect width="2" height="2" transform="matrix(-1 0 0 1 58 24)" fill="#686868" />
	<rect width="2" height="2" transform="matrix(-1 0 0 1 60 26)" fill="#686868" />
	<rect width="2" height="2" transform="matrix(-1 0 0 1 60 28)" fill="#686868" />
	<rect width="2" height="2" transform="matrix(-1 0 0 1 62 24)" fill="#686868" />
	<rect width="2" height="2" transform="matrix(-1 0 0 1 64 20)" fill="#686868" />
	<rect width="2" height="2" transform="matrix(-1 0 0 1 62 14)" fill="#686868" />
	<rect width="2" height="2" transform="matrix(-1 0 0 1 60 10)" fill="#686868" />
	<rect width="2" height="2" transform="matrix(-1 0 0 1 58 8)" fill="#686868" />
	<rect width="2" height="2" transform="matrix(-1 0 0 1 56 6)" fill="#686868" />
	<rect width="2" height="2" transform="matrix(-1 0 0 1 46 0)" fill="#686868" />
	<rect width="2" height="2" transform="matrix(-1 0 0 1 58 22)" fill="#686868" />
	<rect width="2" height="2" transform="matrix(-1 0 0 1 40 2)" fill="#686868" />
	<rect width="2" height="2" transform="matrix(-1 0 0 1 44 0)" fill="#686868" />
	<rect width="2" height="2" transform="matrix(-1 0 0 1 40 4)" fill="#686868" />
	<rect width="2" height="2" transform="matrix(-1 0 0 1 40 6)" fill="#686868" />
	<rect width="2" height="2" transform="matrix(-1 0 0 1 46 6)" fill="#686868" />
	<rect width="2" height="2" transform="matrix(-1 0 0 1 48 8)" fill="#686868" />
	<rect width="2" height="2" transform="matrix(-1 0 0 1 48 10)" fill="#686868" />
	<rect width="2" height="2" transform="matrix(-1 0 0 1 50 8)" fill="#686868" />
	<rect width="2" height="2" transform="matrix(-1 0 0 1 50 10)" fill="#686868" />
	<rect width="2" height="2" transform="matrix(-1 0 0 1 52 12)" fill="#686868" />
	<rect width="2" height="2" transform="matrix(-1 0 0 1 50 2)" fill="#686868" />
	<rect width="2" height="2" transform="matrix(-1 0 0 1 54 4)" fill="#686868" />
	<rect width="2" height="2" transform="matrix(-1 0 0 1 56 14)" fill="#686868" />
	<rect width="2" height="2" transform="matrix(-1 0 0 1 56 16)" fill="#686868" />
	<rect width="2" height="2" transform="matrix(-1 0 0 1 58 18)" fill="#686868" />
	<rect width="2" height="2" transform="matrix(-1 0 0 1 58 20)" fill="#686868" />
	<rect width="2" height="2" transform="matrix(-1 0 0 1 60 24)" fill="#686868" />
	<rect width="2" height="2" transform="matrix(-1 0 0 1 62 26)" fill="#686868" />
	<rect width="2" height="2" transform="matrix(-1 0 0 1 64 22)" fill="#686868" />
	<rect width="2" height="2" transform="matrix(-1 0 0 1 62 16)" fill="#686868" />
	<rect width="2" height="2" transform="matrix(-1 0 0 1 64 18)" fill="#686868" />
	<rect width="2" height="2" transform="matrix(-1 0 0 1 60 12)" fill="#686868" />
	<rect width="2" height="2" transform="matrix(-1 0 0 1 42 4)" fill="#C8C8C8" />
	<rect width="2" height="2" transform="matrix(-1 0 0 1 44 4)" fill="#C8C8C8" />
	<rect width="2" height="2" transform="matrix(-1 0 0 1 46 4)" fill="#C8C8C8" />
	<rect width="2" height="2" transform="matrix(-1 0 0 1 48 6)" fill="#C8C8C8" />
	<rect width="2" height="2" transform="matrix(-1 0 0 1 50 6)" fill="#C8C8C8" />
	<rect width="2" height="2" transform="matrix(-1 0 0 1 52 8)" fill="#C8C8C8" />
	<rect width="2" height="2" transform="matrix(-1 0 0 1 52 10)" fill="#C8C8C8" />
	<rect width="2" height="2" transform="matrix(-1 0 0 1 54 12)" fill="#C8C8C8" />
	<rect width="2" height="2" transform="matrix(-1 0 0 1 54 8)" fill="#C8C8C8" />
	<rect width="2" height="2" transform="matrix(-1 0 0 1 54 10)" fill="#C8C8C8" />
	<rect width="2" height="2" transform="matrix(-1 0 0 1 56 12)" fill="#C8C8C8" />
	<rect width="2" height="2" transform="matrix(-1 0 0 1 56 10)" fill="#C8C8C8" />
	<rect width="2" height="2" transform="matrix(-1 0 0 1 58 12)" fill="#C8C8C8" />
	<rect width="2" height="2" transform="matrix(-1 0 0 1 60 16)" fill="#C8C8C8" />
	<rect width="2" height="2" transform="matrix(-1 0 0 1 58 16)" fill="#C8C8C8" />
	<rect width="2" height="2" transform="matrix(-1 0 0 1 62 20)" fill="#C8C8C8" />
	<rect width="2" height="2" transform="matrix(-1 0 0 1 62 22)" fill="#C8C8C8" />
	<rect width="2" height="2" transform="matrix(-1 0 0 1 60 20)" fill="#C8C8C8" />
	<rect width="2" height="2" transform="matrix(-1 0 0 1 60 22)" fill="#C8C8C8" />
	<rect width="2" height="2" transform="matrix(-1 0 0 1 42 2)" fill="#C8C8C8" />
	<rect width="2" height="2" transform="matrix(-1 0 0 1 44 2)" fill="#C8C8C8" />
	<rect width="2" height="2" transform="matrix(-1 0 0 1 46 2)" fill="#C8C8C8" />
	<rect width="2" height="2" transform="matrix(-1 0 0 1 48 4)" fill="#C8C8C8" />
	<rect width="2" height="2" transform="matrix(-1 0 0 1 50 4)" fill="#C8C8C8" />
	<rect width="2" height="2" transform="matrix(-1 0 0 1 52 6)" fill="#C8C8C8" />
	<rect width="2" height="2" transform="matrix(-1 0 0 1 54 6)" fill="#C8C8C8" />
	<rect width="2" height="2" transform="matrix(-1 0 0 1 56 8)" fill="#C8C8C8" />
	<rect width="2" height="2" transform="matrix(-1 0 0 1 58 10)" fill="#C8C8C8" />
	<rect width="2" height="2" transform="matrix(-1 0 0 1 60 14)" fill="#C8C8C8" />
	<rect width="2" height="2" transform="matrix(-1 0 0 1 58 14)" fill="#C8C8C8" />
	<rect width="2" height="2" transform="matrix(-1 0 0 1 62 18)" fill="#C8C8C8" />
	<rect width="2" height="2" transform="matrix(-1 0 0 1 60 18)" fill="#C8C8C8" />
	<rect x="28" y="4" width="2" height="2" fill="#686868" />
	<rect x="26" y="2" width="2" height="2" fill="#686868" />
	<rect x="22" width="2" height="2" fill="#686868" />
	<rect x="26" y="4" width="2" height="2" fill="#686868" />
	<rect x="26" y="6" width="2" height="2" fill="#686868" />
	<rect x="20" y="6" width="2" height="2" fill="#686868" />
	<rect x="22" y="6" width="2" height="2" fill="#686868" />
	<rect x="18" y="8" width="2" height="2" fill="#686868" />
	<rect x="16" y="2" width="2" height="2" fill="#686868" />
	<rect x="12" y="4" width="2" height="2" fill="#686868" />
	<rect x="10" y="14" width="2" height="2" fill="#686868" />
	<rect x="10" y="16" width="2" height="2" fill="#686868" />
	<rect x="8" y="18" width="2" height="2" fill="#686868" />
	<rect x="8" y="20" width="2" height="2" fill="#686868" />
	<rect x="6" y="24" width="2" height="2" fill="#686868" />
	<rect x="4" y="26" width="2" height="2" fill="#686868" />
	<rect x="4" y="28" width="2" height="2" fill="#686868" />
	<rect x="2" y="24" width="2" height="2" fill="#686868" />
	<rect y="20" width="2" height="2" fill="#686868" />
	<rect x="2" y="14" width="2" height="2" fill="#686868" />
	<rect x="4" y="10" width="2" height="2" fill="#686868" />
	<rect x="6" y="8" width="2" height="2" fill="#686868" />
	<rect x="8" y="6" width="2" height="2" fill="#686868" />
	<rect x="18" width="2" height="2" fill="#686868" />
	<rect x="6" y="22" width="2" height="2" fill="#686868" />
	<rect x="24" y="2" width="2" height="2" fill="#686868" />
	<rect x="20" width="2" height="2" fill="#686868" />
	<rect x="24" y="4" width="2" height="2" fill="#686868" />
	<rect x="24" y="6" width="2" height="2" fill="#686868" />
	<rect x="18" y="6" width="2" height="2" fill="#686868" />
	<rect x="16" y="8" width="2" height="2" fill="#686868" />
	<rect x="16" y="10" width="2" height="2" fill="#686868" />
	<rect x="14" y="8" width="2" height="2" fill="#686868" />
	<rect x="14" y="10" width="2" height="2" fill="#686868" />
	<rect x="12" y="12" width="2" height="2" fill="#686868" />
	<rect x="14" y="2" width="2" height="2" fill="#686868" />
	<rect x="10" y="4" width="2" height="2" fill="#686868" />
	<rect x="8" y="14" width="2" height="2" fill="#686868" />
	<rect x="8" y="16" width="2" height="2" fill="#686868" />
	<rect x="6" y="18" width="2" height="2" fill="#686868" />
	<rect x="6" y="20" width="2" height="2" fill="#686868" />
	<rect x="4" y="24" width="2" height="2" fill="#686868" />
	<rect x="2" y="26" width="2" height="2" fill="#686868" />
	<rect y="22" width="2" height="2" fill="#686868" />
	<rect x="2" y="16" width="2" height="2" fill="#686868" />
	<rect y="18" width="2" height="2" fill="#686868" />
	<rect x="4" y="12" width="2" height="2" fill="#686868" />
	<rect x="22" y="4" width="2" height="2" fill="#C8C8C8" />
	<rect x="20" y="4" width="2" height="2" fill="#C8C8C8" />
	<rect x="18" y="4" width="2" height="2" fill="#C8C8C8" />
	<rect x="16" y="6" width="2" height="2" fill="#C8C8C8" />
	<rect x="14" y="6" width="2" height="2" fill="#C8C8C8" />
	<rect x="12" y="8" width="2" height="2" fill="#C8C8C8" />
	<rect x="12" y="10" width="2" height="2" fill="#C8C8C8" />
	<rect x="10" y="12" width="2" height="2" fill="#C8C8C8" />
	<rect x="10" y="8" width="2" height="2" fill="#C8C8C8" />
	<rect x="10" y="10" width="2" height="2" fill="#C8C8C8" />
	<rect x="8" y="12" width="2" height="2" fill="#C8C8C8" />
	<rect x="8" y="10" width="2" height="2" fill="#C8C8C8" />
	<rect x="6" y="12" width="2" height="2" fill="#C8C8C8" />
	<rect x="4" y="16" width="2" height="2" fill="#C8C8C8" />
	<rect x="6" y="16" width="2" height="2" fill="#C8C8C8" />
	<rect x="2" y="20" width="2" height="2" fill="#C8C8C8" />
	<rect x="2" y="22" width="2" height="2" fill="#C8C8C8" />
	<rect x="4" y="20" width="2" height="2" fill="#C8C8C8" />
	<rect x="4" y="22" width="2" height="2" fill="#C8C8C8" />
	<rect x="22" y="2" width="2" height="2" fill="#C8C8C8" />
	<rect x="20" y="2" width="2" height="2" fill="#C8C8C8" />
	<rect x="18" y="2" width="2" height="2" fill="#C8C8C8" />
	<rect x="16" y="4" width="2" height="2" fill="#C8C8C8" />
	<rect x="14" y="4" width="2" height="2" fill="#C8C8C8" />
	<rect x="12" y="6" width="2" height="2" fill="#C8C8C8" />
	<rect x="10" y="6" width="2" height="2" fill="#C8C8C8" />
	<rect x="8" y="8" width="2" height="2" fill="#C8C8C8" />
	<rect x="6" y="10" width="2" height="2" fill="#C8C8C8" />
	<rect x="4" y="14" width="2" height="2" fill="#C8C8C8" />
	<rect x="6" y="14" width="2" height="2" fill="#C8C8C8" />
	<rect x="2" y="18" width="2" height="2" fill="#C8C8C8" />
	<rect x="4" y="18" width="2" height="2" fill="#C8C8C8" />
	<rect x="36" y="60" width="2" height="2" transform="rotate(180 36 60)" fill="#686868" />
	<rect x="38" y="62" width="2" height="2" transform="rotate(180 38 62)" fill="#686868" />
	<rect x="42" y="64" width="2" height="2" transform="rotate(180 42 64)" fill="#686868" />
	<rect x="38" y="60" width="2" height="2" transform="rotate(180 38 60)" fill="#686868" />
	<rect x="38" y="58" width="2" height="2" transform="rotate(180 38 58)" fill="#686868" />
	<rect x="44" y="58" width="2" height="2" transform="rotate(180 44 58)" fill="#686868" />
	<rect x="42" y="58" width="2" height="2" transform="rotate(180 42 58)" fill="#686868" />
	<rect x="46" y="56" width="2" height="2" transform="rotate(180 46 56)" fill="#686868" />
	<rect x="48" y="62" width="2" height="2" transform="rotate(180 48 62)" fill="#686868" />
	<rect x="52" y="60" width="2" height="2" transform="rotate(180 52 60)" fill="#686868" />
	<rect x="54" y="50" width="2" height="2" transform="rotate(180 54 50)" fill="#686868" />
	<rect x="54" y="48" width="2" height="2" transform="rotate(180 54 48)" fill="#686868" />
	<rect x="56" y="46" width="2" height="2" transform="rotate(180 56 46)" fill="#686868" />
	<rect x="56" y="44" width="2" height="2" transform="rotate(180 56 44)" fill="#686868" />
	<rect x="58" y="40" width="2" height="2" transform="rotate(180 58 40)" fill="#686868" />
	<rect x="60" y="38" width="2" height="2" transform="rotate(180 60 38)" fill="#686868" />
	<rect x="60" y="36" width="2" height="2" transform="rotate(180 60 36)" fill="#686868" />
	<rect x="62" y="40" width="2" height="2" transform="rotate(180 62 40)" fill="#686868" />
	<rect x="64" y="44" width="2" height="2" transform="rotate(180 64 44)" fill="#686868" />
	<rect x="62" y="50" width="2" height="2" transform="rotate(180 62 50)" fill="#686868" />
	<rect x="60" y="54" width="2" height="2" transform="rotate(180 60 54)" fill="#686868" />
	<rect x="58" y="56" width="2" height="2" transform="rotate(180 58 56)" fill="#686868" />
	<rect x="56" y="58" width="2" height="2" transform="rotate(180 56 58)" fill="#686868" />
	<rect x="46" y="64" width="2" height="2" transform="rotate(180 46 64)" fill="#686868" />
	<rect x="58" y="42" width="2" height="2" transform="rotate(180 58 42)" fill="#686868" />
	<rect x="40" y="62" width="2" height="2" transform="rotate(180 40 62)" fill="#686868" />
	<rect x="44" y="64" width="2" height="2" transform="rotate(180 44 64)" fill="#686868" />
	<rect x="40" y="60" width="2" height="2" transform="rotate(180 40 60)" fill="#686868" />
	<rect x="40" y="58" width="2" height="2" transform="rotate(180 40 58)" fill="#686868" />
	<rect x="46" y="58" width="2" height="2" transform="rotate(180 46 58)" fill="#686868" />
	<rect x="48" y="56" width="2" height="2" transform="rotate(180 48 56)" fill="#686868" />
	<rect x="48" y="54" width="2" height="2" transform="rotate(180 48 54)" fill="#686868" />
	<rect x="50" y="56" width="2" height="2" transform="rotate(180 50 56)" fill="#686868" />
	<rect x="50" y="54" width="2" height="2" transform="rotate(180 50 54)" fill="#686868" />
	<rect x="52" y="52" width="2" height="2" transform="rotate(180 52 52)" fill="#686868" />
	<rect x="50" y="62" width="2" height="2" transform="rotate(180 50 62)" fill="#686868" />
	<rect x="54" y="60" width="2" height="2" transform="rotate(180 54 60)" fill="#686868" />
	<rect x="56" y="50" width="2" height="2" transform="rotate(180 56 50)" fill="#686868" />
	<rect x="56" y="48" width="2" height="2" transform="rotate(180 56 48)" fill="#686868" />
	<rect x="58" y="46" width="2" height="2" transform="rotate(180 58 46)" fill="#686868" />
	<rect x="58" y="44" width="2" height="2" transform="rotate(180 58 44)" fill="#686868" />
	<rect x="60" y="40" width="2" height="2" transform="rotate(180 60 40)" fill="#686868" />
	<rect x="62" y="38" width="2" height="2" transform="rotate(180 62 38)" fill="#686868" />
	<rect x="64" y="42" width="2" height="2" transform="rotate(180 64 42)" fill="#686868" />
	<rect x="62" y="48" width="2" height="2" transform="rotate(180 62 48)" fill="#686868" />
	<rect x="64" y="46" width="2" height="2" transform="rotate(180 64 46)" fill="#686868" />
	<rect x="60" y="52" width="2" height="2" transform="rotate(180 60 52)" fill="#686868" />
	<rect x="42" y="60" width="2" height="2" transform="rotate(180 42 60)" fill="#C8C8C8" />
	<rect x="44" y="60" width="2" height="2" transform="rotate(180 44 60)" fill="#C8C8C8" />
	<rect x="46" y="60" width="2" height="2" transform="rotate(180 46 60)" fill="#C8C8C8" />
	<rect x="48" y="58" width="2" height="2" transform="rotate(180 48 58)" fill="#C8C8C8" />
	<rect x="50" y="58" width="2" height="2" transform="rotate(180 50 58)" fill="#C8C8C8" />
	<rect x="52" y="56" width="2" height="2" transform="rotate(180 52 56)" fill="#C8C8C8" />
	<rect x="52" y="54" width="2" height="2" transform="rotate(180 52 54)" fill="#C8C8C8" />
	<rect x="54" y="52" width="2" height="2" transform="rotate(180 54 52)" fill="#C8C8C8" />
	<rect x="54" y="56" width="2" height="2" transform="rotate(180 54 56)" fill="#C8C8C8" />
	<rect x="54" y="54" width="2" height="2" transform="rotate(180 54 54)" fill="#C8C8C8" />
	<rect x="56" y="52" width="2" height="2" transform="rotate(180 56 52)" fill="#C8C8C8" />
	<rect x="56" y="54" width="2" height="2" transform="rotate(180 56 54)" fill="#C8C8C8" />
	<rect x="58" y="52" width="2" height="2" transform="rotate(180 58 52)" fill="#C8C8C8" />
	<rect x="60" y="48" width="2" height="2" transform="rotate(180 60 48)" fill="#C8C8C8" />
	<rect x="58" y="48" width="2" height="2" transform="rotate(180 58 48)" fill="#C8C8C8" />
	<rect x="62" y="44" width="2" height="2" transform="rotate(180 62 44)" fill="#C8C8C8" />
	<rect x="62" y="42" width="2" height="2" transform="rotate(180 62 42)" fill="#C8C8C8" />
	<rect x="60" y="44" width="2" height="2" transform="rotate(180 60 44)" fill="#C8C8C8" />
	<rect x="60" y="42" width="2" height="2" transform="rotate(180 60 42)" fill="#C8C8C8" />
	<rect x="42" y="62" width="2" height="2" transform="rotate(180 42 62)" fill="#C8C8C8" />
	<rect x="44" y="62" width="2" height="2" transform="rotate(180 44 62)" fill="#C8C8C8" />
	<rect x="46" y="62" width="2" height="2" transform="rotate(180 46 62)" fill="#C8C8C8" />
	<rect x="48" y="60" width="2" height="2" transform="rotate(180 48 60)" fill="#C8C8C8" />
	<rect x="50" y="60" width="2" height="2" transform="rotate(180 50 60)" fill="#C8C8C8" />
	<rect x="52" y="58" width="2" height="2" transform="rotate(180 52 58)" fill="#C8C8C8" />
	<rect x="54" y="58" width="2" height="2" transform="rotate(180 54 58)" fill="#C8C8C8" />
	<rect x="56" y="56" width="2" height="2" transform="rotate(180 56 56)" fill="#C8C8C8" />
	<rect x="58" y="54" width="2" height="2" transform="rotate(180 58 54)" fill="#C8C8C8" />
	<rect x="60" y="50" width="2" height="2" transform="rotate(180 60 50)" fill="#C8C8C8" />
	<rect x="58" y="50" width="2" height="2" transform="rotate(180 58 50)" fill="#C8C8C8" />
	<rect x="62" y="46" width="2" height="2" transform="rotate(180 62 46)" fill="#C8C8C8" />
	<rect x="60" y="46" width="2" height="2" transform="rotate(180 60 46)" fill="#C8C8C8" />
</svg>
