<svg width="80" height="80" viewBox="0 0 80 80" fill="none" xmlns="http://www.w3.org/2000/svg">
	<rect x="28" y="4" width="2" height="2" fill="#686868" />
	<rect x="26" y="2" width="2" height="2" fill="#686868" />
	<rect x="22" width="2" height="2" fill="#686868" />
	<rect x="26" y="4" width="2" height="2" fill="#686868" />
	<rect x="26" y="6" width="2" height="2" fill="#686868" />
	<rect x="20" y="6" width="2" height="2" fill="#686868" />
	<rect x="22" y="6" width="2" height="2" fill="#686868" />
	<rect x="18" y="8" width="2" height="2" fill="#686868" />
	<rect x="16" y="2" width="2" height="2" fill="#686868" />
	<rect x="12" y="4" width="2" height="2" fill="#686868" />
	<rect x="10" y="14" width="2" height="2" fill="#686868" />
	<rect x="10" y="16" width="2" height="2" fill="#686868" />
	<rect x="8" y="18" width="2" height="2" fill="#686868" />
	<rect x="8" y="20" width="2" height="2" fill="#686868" />
	<rect x="6" y="24" width="2" height="2" fill="#686868" />
	<rect x="4" y="26" width="2" height="2" fill="#686868" />
	<rect x="4" y="28" width="2" height="2" fill="#686868" />
	<rect x="2" y="24" width="2" height="2" fill="#686868" />
	<rect y="20" width="2" height="2" fill="#686868" />
	<rect x="2" y="14" width="2" height="2" fill="#686868" />
	<rect x="4" y="10" width="2" height="2" fill="#686868" />
	<rect x="6" y="8" width="2" height="2" fill="#686868" />
	<rect x="8" y="6" width="2" height="2" fill="#686868" />
	<rect x="18" width="2" height="2" fill="#686868" />
	<rect x="6" y="22" width="2" height="2" fill="#686868" />
	<rect x="24" y="2" width="2" height="2" fill="#686868" />
	<rect x="20" width="2" height="2" fill="#686868" />
	<rect x="24" y="4" width="2" height="2" fill="#686868" />
	<rect x="24" y="6" width="2" height="2" fill="#686868" />
	<rect x="18" y="6" width="2" height="2" fill="#686868" />
	<rect x="16" y="8" width="2" height="2" fill="#686868" />
	<rect x="16" y="10" width="2" height="2" fill="#686868" />
	<rect x="14" y="8" width="2" height="2" fill="#686868" />
	<rect x="14" y="10" width="2" height="2" fill="#686868" />
	<rect x="12" y="12" width="2" height="2" fill="#686868" />
	<rect x="14" y="2" width="2" height="2" fill="#686868" />
	<rect x="10" y="4" width="2" height="2" fill="#686868" />
	<rect x="8" y="14" width="2" height="2" fill="#686868" />
	<rect x="8" y="16" width="2" height="2" fill="#686868" />
	<rect x="6" y="18" width="2" height="2" fill="#686868" />
	<rect x="6" y="20" width="2" height="2" fill="#686868" />
	<rect x="4" y="24" width="2" height="2" fill="#686868" />
	<rect x="2" y="26" width="2" height="2" fill="#686868" />
	<rect y="22" width="2" height="2" fill="#686868" />
	<rect x="2" y="16" width="2" height="2" fill="#686868" />
	<rect y="18" width="2" height="2" fill="#686868" />
	<rect x="4" y="12" width="2" height="2" fill="#686868" />
	<rect x="22" y="4" width="2" height="2" fill="#C8C8C8" />
	<rect x="20" y="4" width="2" height="2" fill="#C8C8C8" />
	<rect x="18" y="4" width="2" height="2" fill="#C8C8C8" />
	<rect x="16" y="6" width="2" height="2" fill="#C8C8C8" />
	<rect x="14" y="6" width="2" height="2" fill="#C8C8C8" />
	<rect x="12" y="8" width="2" height="2" fill="#C8C8C8" />
	<rect x="12" y="10" width="2" height="2" fill="#C8C8C8" />
	<rect x="10" y="12" width="2" height="2" fill="#C8C8C8" />
	<rect x="10" y="8" width="2" height="2" fill="#C8C8C8" />
	<rect x="10" y="10" width="2" height="2" fill="#C8C8C8" />
	<rect x="8" y="12" width="2" height="2" fill="#C8C8C8" />
	<rect x="8" y="10" width="2" height="2" fill="#C8C8C8" />
	<rect x="6" y="12" width="2" height="2" fill="#C8C8C8" />
	<rect x="4" y="16" width="2" height="2" fill="#C8C8C8" />
	<rect x="6" y="16" width="2" height="2" fill="#C8C8C8" />
	<rect x="2" y="20" width="2" height="2" fill="#C8C8C8" />
	<rect x="2" y="22" width="2" height="2" fill="#C8C8C8" />
	<rect x="4" y="20" width="2" height="2" fill="#C8C8C8" />
	<rect x="4" y="22" width="2" height="2" fill="#C8C8C8" />
	<rect x="22" y="2" width="2" height="2" fill="#C8C8C8" />
	<rect x="20" y="2" width="2" height="2" fill="#C8C8C8" />
	<rect x="18" y="2" width="2" height="2" fill="#C8C8C8" />
	<rect x="16" y="4" width="2" height="2" fill="#C8C8C8" />
	<rect x="14" y="4" width="2" height="2" fill="#C8C8C8" />
	<rect x="12" y="6" width="2" height="2" fill="#C8C8C8" />
	<rect x="10" y="6" width="2" height="2" fill="#C8C8C8" />
	<rect x="8" y="8" width="2" height="2" fill="#C8C8C8" />
	<rect x="6" y="10" width="2" height="2" fill="#C8C8C8" />
	<rect x="4" y="14" width="2" height="2" fill="#C8C8C8" />
	<rect x="6" y="14" width="2" height="2" fill="#C8C8C8" />
	<rect x="2" y="18" width="2" height="2" fill="#C8C8C8" />
	<rect x="4" y="18" width="2" height="2" fill="#C8C8C8" />
	<rect width="2" height="2" transform="matrix(1 0 0 -1 28 76)" fill="#686868" />
	<rect width="2" height="2" transform="matrix(1 0 0 -1 26 78)" fill="#686868" />
	<rect width="2" height="2" transform="matrix(1 0 0 -1 22 80)" fill="#686868" />
	<rect width="2" height="2" transform="matrix(1 0 0 -1 26 76)" fill="#686868" />
	<rect width="2" height="2" transform="matrix(1 0 0 -1 26 74)" fill="#686868" />
	<rect width="2" height="2" transform="matrix(1 0 0 -1 20 74)" fill="#686868" />
	<rect width="2" height="2" transform="matrix(1 0 0 -1 22 74)" fill="#686868" />
	<rect width="2" height="2" transform="matrix(1 0 0 -1 18 72)" fill="#686868" />
	<rect width="2" height="2" transform="matrix(1 0 0 -1 16 78)" fill="#686868" />
	<rect width="2" height="2" transform="matrix(1 0 0 -1 12 76)" fill="#686868" />
	<rect width="2" height="2" transform="matrix(1 0 0 -1 10 66)" fill="#686868" />
	<rect width="2" height="2" transform="matrix(1 0 0 -1 10 64)" fill="#686868" />
	<rect width="2" height="2" transform="matrix(1 0 0 -1 8 62)" fill="#686868" />
	<rect width="2" height="2" transform="matrix(1 0 0 -1 8 60)" fill="#686868" />
	<rect width="2" height="2" transform="matrix(1 0 0 -1 6 56)" fill="#686868" />
	<rect width="2" height="2" transform="matrix(1 0 0 -1 4 54)" fill="#686868" />
	<rect width="2" height="2" transform="matrix(1 0 0 -1 4 52)" fill="#686868" />
	<rect width="2" height="2" transform="matrix(1 0 0 -1 2 56)" fill="#686868" />
	<rect width="2" height="2" transform="matrix(1 0 0 -1 0 60)" fill="#686868" />
	<rect width="2" height="2" transform="matrix(1 0 0 -1 2 66)" fill="#686868" />
	<rect width="2" height="2" transform="matrix(1 0 0 -1 4 70)" fill="#686868" />
	<rect width="2" height="2" transform="matrix(1 0 0 -1 6 72)" fill="#686868" />
	<rect width="2" height="2" transform="matrix(1 0 0 -1 8 74)" fill="#686868" />
	<rect width="2" height="2" transform="matrix(1 0 0 -1 18 80)" fill="#686868" />
	<rect width="2" height="2" transform="matrix(1 0 0 -1 6 58)" fill="#686868" />
	<rect width="2" height="2" transform="matrix(1 0 0 -1 24 78)" fill="#686868" />
	<rect width="2" height="2" transform="matrix(1 0 0 -1 20 80)" fill="#686868" />
	<rect width="2" height="2" transform="matrix(1 0 0 -1 24 76)" fill="#686868" />
	<rect width="2" height="2" transform="matrix(1 0 0 -1 24 74)" fill="#686868" />
	<rect width="2" height="2" transform="matrix(1 0 0 -1 18 74)" fill="#686868" />
	<rect width="2" height="2" transform="matrix(1 0 0 -1 16 72)" fill="#686868" />
	<rect width="2" height="2" transform="matrix(1 0 0 -1 16 70)" fill="#686868" />
	<rect width="2" height="2" transform="matrix(1 0 0 -1 14 72)" fill="#686868" />
	<rect width="2" height="2" transform="matrix(1 0 0 -1 14 70)" fill="#686868" />
	<rect width="2" height="2" transform="matrix(1 0 0 -1 12 68)" fill="#686868" />
	<rect width="2" height="2" transform="matrix(1 0 0 -1 14 78)" fill="#686868" />
	<rect width="2" height="2" transform="matrix(1 0 0 -1 10 76)" fill="#686868" />
	<rect width="2" height="2" transform="matrix(1 0 0 -1 8 66)" fill="#686868" />
	<rect width="2" height="2" transform="matrix(1 0 0 -1 8 64)" fill="#686868" />
	<rect width="2" height="2" transform="matrix(1 0 0 -1 6 62)" fill="#686868" />
	<rect width="2" height="2" transform="matrix(1 0 0 -1 6 60)" fill="#686868" />
	<rect width="2" height="2" transform="matrix(1 0 0 -1 4 56)" fill="#686868" />
	<rect width="2" height="2" transform="matrix(1 0 0 -1 2 54)" fill="#686868" />
	<rect width="2" height="2" transform="matrix(1 0 0 -1 0 58)" fill="#686868" />
	<rect width="2" height="2" transform="matrix(1 0 0 -1 2 64)" fill="#686868" />
	<rect width="2" height="2" transform="matrix(1 0 0 -1 0 62)" fill="#686868" />
	<rect width="2" height="2" transform="matrix(1 0 0 -1 4 68)" fill="#686868" />
	<rect width="2" height="2" transform="matrix(1 0 0 -1 22 76)" fill="#C8C8C8" />
	<rect width="2" height="2" transform="matrix(1 0 0 -1 20 76)" fill="#C8C8C8" />
	<rect width="2" height="2" transform="matrix(1 0 0 -1 18 76)" fill="#C8C8C8" />
	<rect width="2" height="2" transform="matrix(1 0 0 -1 16 74)" fill="#C8C8C8" />
	<rect width="2" height="2" transform="matrix(1 0 0 -1 14 74)" fill="#C8C8C8" />
	<rect width="2" height="2" transform="matrix(1 0 0 -1 12 72)" fill="#C8C8C8" />
	<rect width="2" height="2" transform="matrix(1 0 0 -1 12 70)" fill="#C8C8C8" />
	<rect width="2" height="2" transform="matrix(1 0 0 -1 10 68)" fill="#C8C8C8" />
	<rect width="2" height="2" transform="matrix(1 0 0 -1 10 72)" fill="#C8C8C8" />
	<rect width="2" height="2" transform="matrix(1 0 0 -1 10 70)" fill="#C8C8C8" />
	<rect width="2" height="2" transform="matrix(1 0 0 -1 8 68)" fill="#C8C8C8" />
	<rect width="2" height="2" transform="matrix(1 0 0 -1 8 70)" fill="#C8C8C8" />
	<rect width="2" height="2" transform="matrix(1 0 0 -1 6 68)" fill="#C8C8C8" />
	<rect width="2" height="2" transform="matrix(1 0 0 -1 4 64)" fill="#C8C8C8" />
	<rect width="2" height="2" transform="matrix(1 0 0 -1 6 64)" fill="#C8C8C8" />
	<rect width="2" height="2" transform="matrix(1 0 0 -1 2 60)" fill="#C8C8C8" />
	<rect width="2" height="2" transform="matrix(1 0 0 -1 2 58)" fill="#C8C8C8" />
	<rect width="2" height="2" transform="matrix(1 0 0 -1 4 60)" fill="#C8C8C8" />
	<rect width="2" height="2" transform="matrix(1 0 0 -1 4 58)" fill="#C8C8C8" />
	<rect width="2" height="2" transform="matrix(1 0 0 -1 22 78)" fill="#C8C8C8" />
	<rect width="2" height="2" transform="matrix(1 0 0 -1 20 78)" fill="#C8C8C8" />
	<rect width="2" height="2" transform="matrix(1 0 0 -1 18 78)" fill="#C8C8C8" />
	<rect width="2" height="2" transform="matrix(1 0 0 -1 16 76)" fill="#C8C8C8" />
	<rect width="2" height="2" transform="matrix(1 0 0 -1 14 76)" fill="#C8C8C8" />
	<rect width="2" height="2" transform="matrix(1 0 0 -1 12 74)" fill="#C8C8C8" />
	<rect width="2" height="2" transform="matrix(1 0 0 -1 10 74)" fill="#C8C8C8" />
	<rect width="2" height="2" transform="matrix(1 0 0 -1 8 72)" fill="#C8C8C8" />
	<rect width="2" height="2" transform="matrix(1 0 0 -1 6 70)" fill="#C8C8C8" />
	<rect width="2" height="2" transform="matrix(1 0 0 -1 4 66)" fill="#C8C8C8" />
	<rect width="2" height="2" transform="matrix(1 0 0 -1 6 66)" fill="#C8C8C8" />
	<rect width="2" height="2" transform="matrix(1 0 0 -1 2 62)" fill="#C8C8C8" />
	<rect width="2" height="2" transform="matrix(1 0 0 -1 4 62)" fill="#C8C8C8" />
	<rect x="52" y="76" width="2" height="2" transform="rotate(180 52 76)" fill="#686868" />
	<rect x="54" y="78" width="2" height="2" transform="rotate(180 54 78)" fill="#686868" />
	<rect x="58" y="80" width="2" height="2" transform="rotate(180 58 80)" fill="#686868" />
	<rect x="54" y="76" width="2" height="2" transform="rotate(180 54 76)" fill="#686868" />
	<rect x="54" y="74" width="2" height="2" transform="rotate(180 54 74)" fill="#686868" />
	<rect x="60" y="74" width="2" height="2" transform="rotate(180 60 74)" fill="#686868" />
	<rect x="58" y="74" width="2" height="2" transform="rotate(180 58 74)" fill="#686868" />
	<rect x="62" y="72" width="2" height="2" transform="rotate(180 62 72)" fill="#686868" />
	<rect x="64" y="78" width="2" height="2" transform="rotate(180 64 78)" fill="#686868" />
	<rect x="68" y="76" width="2" height="2" transform="rotate(180 68 76)" fill="#686868" />
	<rect x="70" y="66" width="2" height="2" transform="rotate(180 70 66)" fill="#686868" />
	<rect x="70" y="64" width="2" height="2" transform="rotate(180 70 64)" fill="#686868" />
	<rect x="72" y="62" width="2" height="2" transform="rotate(180 72 62)" fill="#686868" />
	<rect x="72" y="60" width="2" height="2" transform="rotate(180 72 60)" fill="#686868" />
	<rect x="74" y="56" width="2" height="2" transform="rotate(180 74 56)" fill="#686868" />
	<rect x="76" y="54" width="2" height="2" transform="rotate(180 76 54)" fill="#686868" />
	<rect x="76" y="52" width="2" height="2" transform="rotate(180 76 52)" fill="#686868" />
	<rect x="78" y="56" width="2" height="2" transform="rotate(180 78 56)" fill="#686868" />
	<rect x="80" y="60" width="2" height="2" transform="rotate(180 80 60)" fill="#686868" />
	<rect x="78" y="66" width="2" height="2" transform="rotate(180 78 66)" fill="#686868" />
	<rect x="76" y="70" width="2" height="2" transform="rotate(180 76 70)" fill="#686868" />
	<rect x="74" y="72" width="2" height="2" transform="rotate(180 74 72)" fill="#686868" />
	<rect x="72" y="74" width="2" height="2" transform="rotate(180 72 74)" fill="#686868" />
	<rect x="62" y="80" width="2" height="2" transform="rotate(180 62 80)" fill="#686868" />
	<rect x="74" y="58" width="2" height="2" transform="rotate(180 74 58)" fill="#686868" />
	<rect x="56" y="78" width="2" height="2" transform="rotate(180 56 78)" fill="#686868" />
	<rect x="60" y="80" width="2" height="2" transform="rotate(180 60 80)" fill="#686868" />
	<rect x="56" y="76" width="2" height="2" transform="rotate(180 56 76)" fill="#686868" />
	<rect x="56" y="74" width="2" height="2" transform="rotate(180 56 74)" fill="#686868" />
	<rect x="62" y="74" width="2" height="2" transform="rotate(180 62 74)" fill="#686868" />
	<rect x="64" y="72" width="2" height="2" transform="rotate(180 64 72)" fill="#686868" />
	<rect x="64" y="70" width="2" height="2" transform="rotate(180 64 70)" fill="#686868" />
	<rect x="66" y="72" width="2" height="2" transform="rotate(180 66 72)" fill="#686868" />
	<rect x="66" y="70" width="2" height="2" transform="rotate(180 66 70)" fill="#686868" />
	<rect x="68" y="68" width="2" height="2" transform="rotate(180 68 68)" fill="#686868" />
	<rect x="66" y="78" width="2" height="2" transform="rotate(180 66 78)" fill="#686868" />
	<rect x="70" y="76" width="2" height="2" transform="rotate(180 70 76)" fill="#686868" />
	<rect x="72" y="66" width="2" height="2" transform="rotate(180 72 66)" fill="#686868" />
	<rect x="72" y="64" width="2" height="2" transform="rotate(180 72 64)" fill="#686868" />
	<rect x="74" y="62" width="2" height="2" transform="rotate(180 74 62)" fill="#686868" />
	<rect x="74" y="60" width="2" height="2" transform="rotate(180 74 60)" fill="#686868" />
	<rect x="76" y="56" width="2" height="2" transform="rotate(180 76 56)" fill="#686868" />
	<rect x="78" y="54" width="2" height="2" transform="rotate(180 78 54)" fill="#686868" />
	<rect x="80" y="58" width="2" height="2" transform="rotate(180 80 58)" fill="#686868" />
	<rect x="78" y="64" width="2" height="2" transform="rotate(180 78 64)" fill="#686868" />
	<rect x="80" y="62" width="2" height="2" transform="rotate(180 80 62)" fill="#686868" />
	<rect x="76" y="68" width="2" height="2" transform="rotate(180 76 68)" fill="#686868" />
	<rect x="58" y="76" width="2" height="2" transform="rotate(180 58 76)" fill="#C8C8C8" />
	<rect x="60" y="76" width="2" height="2" transform="rotate(180 60 76)" fill="#C8C8C8" />
	<rect x="62" y="76" width="2" height="2" transform="rotate(180 62 76)" fill="#C8C8C8" />
	<rect x="64" y="74" width="2" height="2" transform="rotate(180 64 74)" fill="#C8C8C8" />
	<rect x="66" y="74" width="2" height="2" transform="rotate(180 66 74)" fill="#C8C8C8" />
	<rect x="68" y="72" width="2" height="2" transform="rotate(180 68 72)" fill="#C8C8C8" />
	<rect x="68" y="70" width="2" height="2" transform="rotate(180 68 70)" fill="#C8C8C8" />
	<rect x="70" y="68" width="2" height="2" transform="rotate(180 70 68)" fill="#C8C8C8" />
	<rect x="70" y="72" width="2" height="2" transform="rotate(180 70 72)" fill="#C8C8C8" />
	<rect x="70" y="70" width="2" height="2" transform="rotate(180 70 70)" fill="#C8C8C8" />
	<rect x="72" y="68" width="2" height="2" transform="rotate(180 72 68)" fill="#C8C8C8" />
	<rect x="72" y="70" width="2" height="2" transform="rotate(180 72 70)" fill="#C8C8C8" />
	<rect x="74" y="68" width="2" height="2" transform="rotate(180 74 68)" fill="#C8C8C8" />
	<rect x="76" y="64" width="2" height="2" transform="rotate(180 76 64)" fill="#C8C8C8" />
	<rect x="74" y="64" width="2" height="2" transform="rotate(180 74 64)" fill="#C8C8C8" />
	<rect x="78" y="60" width="2" height="2" transform="rotate(180 78 60)" fill="#C8C8C8" />
	<rect x="78" y="58" width="2" height="2" transform="rotate(180 78 58)" fill="#C8C8C8" />
	<rect x="76" y="60" width="2" height="2" transform="rotate(180 76 60)" fill="#C8C8C8" />
	<rect x="76" y="58" width="2" height="2" transform="rotate(180 76 58)" fill="#C8C8C8" />
	<rect x="58" y="78" width="2" height="2" transform="rotate(180 58 78)" fill="#C8C8C8" />
	<rect x="60" y="78" width="2" height="2" transform="rotate(180 60 78)" fill="#C8C8C8" />
	<rect x="62" y="78" width="2" height="2" transform="rotate(180 62 78)" fill="#C8C8C8" />
	<rect x="64" y="76" width="2" height="2" transform="rotate(180 64 76)" fill="#C8C8C8" />
	<rect x="66" y="76" width="2" height="2" transform="rotate(180 66 76)" fill="#C8C8C8" />
	<rect x="68" y="74" width="2" height="2" transform="rotate(180 68 74)" fill="#C8C8C8" />
	<rect x="70" y="74" width="2" height="2" transform="rotate(180 70 74)" fill="#C8C8C8" />
	<rect x="72" y="72" width="2" height="2" transform="rotate(180 72 72)" fill="#C8C8C8" />
	<rect x="74" y="70" width="2" height="2" transform="rotate(180 74 70)" fill="#C8C8C8" />
	<rect x="76" y="66" width="2" height="2" transform="rotate(180 76 66)" fill="#C8C8C8" />
	<rect x="74" y="66" width="2" height="2" transform="rotate(180 74 66)" fill="#C8C8C8" />
	<rect x="78" y="62" width="2" height="2" transform="rotate(180 78 62)" fill="#C8C8C8" />
	<rect x="76" y="62" width="2" height="2" transform="rotate(180 76 62)" fill="#C8C8C8" />
	<rect width="2" height="2" transform="matrix(-1 0 0 1 52 4)" fill="#686868" />
	<rect width="2" height="2" transform="matrix(-1 0 0 1 54 2)" fill="#686868" />
	<rect width="2" height="2" transform="matrix(-1 0 0 1 58 0)" fill="#686868" />
	<rect width="2" height="2" transform="matrix(-1 0 0 1 54 4)" fill="#686868" />
	<rect width="2" height="2" transform="matrix(-1 0 0 1 54 6)" fill="#686868" />
	<rect width="2" height="2" transform="matrix(-1 0 0 1 60 6)" fill="#686868" />
	<rect width="2" height="2" transform="matrix(-1 0 0 1 58 6)" fill="#686868" />
	<rect width="2" height="2" transform="matrix(-1 0 0 1 62 8)" fill="#686868" />
	<rect width="2" height="2" transform="matrix(-1 0 0 1 64 2)" fill="#686868" />
	<rect width="2" height="2" transform="matrix(-1 0 0 1 68 4)" fill="#686868" />
	<rect width="2" height="2" transform="matrix(-1 0 0 1 70 14)" fill="#686868" />
	<rect width="2" height="2" transform="matrix(-1 0 0 1 70 16)" fill="#686868" />
	<rect width="2" height="2" transform="matrix(-1 0 0 1 72 18)" fill="#686868" />
	<rect width="2" height="2" transform="matrix(-1 0 0 1 72 20)" fill="#686868" />
	<rect width="2" height="2" transform="matrix(-1 0 0 1 74 24)" fill="#686868" />
	<rect width="2" height="2" transform="matrix(-1 0 0 1 76 26)" fill="#686868" />
	<rect width="2" height="2" transform="matrix(-1 0 0 1 76 28)" fill="#686868" />
	<rect width="2" height="2" transform="matrix(-1 0 0 1 78 24)" fill="#686868" />
	<rect width="2" height="2" transform="matrix(-1 0 0 1 80 20)" fill="#686868" />
	<rect width="2" height="2" transform="matrix(-1 0 0 1 78 14)" fill="#686868" />
	<rect width="2" height="2" transform="matrix(-1 0 0 1 76 10)" fill="#686868" />
	<rect width="2" height="2" transform="matrix(-1 0 0 1 74 8)" fill="#686868" />
	<rect width="2" height="2" transform="matrix(-1 0 0 1 72 6)" fill="#686868" />
	<rect width="2" height="2" transform="matrix(-1 0 0 1 62 0)" fill="#686868" />
	<rect width="2" height="2" transform="matrix(-1 0 0 1 74 22)" fill="#686868" />
	<rect width="2" height="2" transform="matrix(-1 0 0 1 56 2)" fill="#686868" />
	<rect width="2" height="2" transform="matrix(-1 0 0 1 60 0)" fill="#686868" />
	<rect width="2" height="2" transform="matrix(-1 0 0 1 56 4)" fill="#686868" />
	<rect width="2" height="2" transform="matrix(-1 0 0 1 56 6)" fill="#686868" />
	<rect width="2" height="2" transform="matrix(-1 0 0 1 62 6)" fill="#686868" />
	<rect width="2" height="2" transform="matrix(-1 0 0 1 64 8)" fill="#686868" />
	<rect width="2" height="2" transform="matrix(-1 0 0 1 64 10)" fill="#686868" />
	<rect width="2" height="2" transform="matrix(-1 0 0 1 66 8)" fill="#686868" />
	<rect width="2" height="2" transform="matrix(-1 0 0 1 66 10)" fill="#686868" />
	<rect width="2" height="2" transform="matrix(-1 0 0 1 68 12)" fill="#686868" />
	<rect width="2" height="2" transform="matrix(-1 0 0 1 66 2)" fill="#686868" />
	<rect width="2" height="2" transform="matrix(-1 0 0 1 70 4)" fill="#686868" />
	<rect width="2" height="2" transform="matrix(-1 0 0 1 72 14)" fill="#686868" />
	<rect width="2" height="2" transform="matrix(-1 0 0 1 72 16)" fill="#686868" />
	<rect width="2" height="2" transform="matrix(-1 0 0 1 74 18)" fill="#686868" />
	<rect width="2" height="2" transform="matrix(-1 0 0 1 74 20)" fill="#686868" />
	<rect width="2" height="2" transform="matrix(-1 0 0 1 76 24)" fill="#686868" />
	<rect width="2" height="2" transform="matrix(-1 0 0 1 78 26)" fill="#686868" />
	<rect width="2" height="2" transform="matrix(-1 0 0 1 80 22)" fill="#686868" />
	<rect width="2" height="2" transform="matrix(-1 0 0 1 78 16)" fill="#686868" />
	<rect width="2" height="2" transform="matrix(-1 0 0 1 80 18)" fill="#686868" />
	<rect width="2" height="2" transform="matrix(-1 0 0 1 76 12)" fill="#686868" />
	<rect width="2" height="2" transform="matrix(-1 0 0 1 58 4)" fill="#C8C8C8" />
	<rect width="2" height="2" transform="matrix(-1 0 0 1 60 4)" fill="#C8C8C8" />
	<rect width="2" height="2" transform="matrix(-1 0 0 1 62 4)" fill="#C8C8C8" />
	<rect width="2" height="2" transform="matrix(-1 0 0 1 64 6)" fill="#C8C8C8" />
	<rect width="2" height="2" transform="matrix(-1 0 0 1 66 6)" fill="#C8C8C8" />
	<rect width="2" height="2" transform="matrix(-1 0 0 1 68 8)" fill="#C8C8C8" />
	<rect width="2" height="2" transform="matrix(-1 0 0 1 68 10)" fill="#C8C8C8" />
	<rect width="2" height="2" transform="matrix(-1 0 0 1 70 12)" fill="#C8C8C8" />
	<rect width="2" height="2" transform="matrix(-1 0 0 1 70 8)" fill="#C8C8C8" />
	<rect width="2" height="2" transform="matrix(-1 0 0 1 70 10)" fill="#C8C8C8" />
	<rect width="2" height="2" transform="matrix(-1 0 0 1 72 12)" fill="#C8C8C8" />
	<rect width="2" height="2" transform="matrix(-1 0 0 1 72 10)" fill="#C8C8C8" />
	<rect width="2" height="2" transform="matrix(-1 0 0 1 74 12)" fill="#C8C8C8" />
	<rect width="2" height="2" transform="matrix(-1 0 0 1 76 16)" fill="#C8C8C8" />
	<rect width="2" height="2" transform="matrix(-1 0 0 1 74 16)" fill="#C8C8C8" />
	<rect width="2" height="2" transform="matrix(-1 0 0 1 78 20)" fill="#C8C8C8" />
	<rect width="2" height="2" transform="matrix(-1 0 0 1 78 22)" fill="#C8C8C8" />
	<rect width="2" height="2" transform="matrix(-1 0 0 1 76 20)" fill="#C8C8C8" />
	<rect width="2" height="2" transform="matrix(-1 0 0 1 76 22)" fill="#C8C8C8" />
	<rect width="2" height="2" transform="matrix(-1 0 0 1 58 2)" fill="#C8C8C8" />
	<rect width="2" height="2" transform="matrix(-1 0 0 1 60 2)" fill="#C8C8C8" />
	<rect width="2" height="2" transform="matrix(-1 0 0 1 62 2)" fill="#C8C8C8" />
	<rect width="2" height="2" transform="matrix(-1 0 0 1 64 4)" fill="#C8C8C8" />
	<rect width="2" height="2" transform="matrix(-1 0 0 1 66 4)" fill="#C8C8C8" />
	<rect width="2" height="2" transform="matrix(-1 0 0 1 68 6)" fill="#C8C8C8" />
	<rect width="2" height="2" transform="matrix(-1 0 0 1 70 6)" fill="#C8C8C8" />
	<rect width="2" height="2" transform="matrix(-1 0 0 1 72 8)" fill="#C8C8C8" />
	<rect width="2" height="2" transform="matrix(-1 0 0 1 74 10)" fill="#C8C8C8" />
	<rect width="2" height="2" transform="matrix(-1 0 0 1 76 14)" fill="#C8C8C8" />
	<rect width="2" height="2" transform="matrix(-1 0 0 1 74 14)" fill="#C8C8C8" />
	<rect width="2" height="2" transform="matrix(-1 0 0 1 78 18)" fill="#C8C8C8" />
	<rect width="2" height="2" transform="matrix(-1 0 0 1 76 18)" fill="#C8C8C8" />
</svg>
